<svg xmlns="http://www.w3.org/2000/svg" viewBox="0 0 320 300"><rect width="320" height="300" fill="#eef1ed"/><ellipse cx="160" cy="245" rx="100" ry="22" fill="#263d3020"/><polygon points="144.56,183.97 144.69,143.69 141.98,143.68 141.85,183.96" fill="#9b7f5f" stroke="#9b7f5f" stroke-width=".35" stroke-linejoin="round"/><polygon points="146.77,185.32 146.90,145.04 144.69,143.69 144.56,183.97" fill="#a98b67" stroke="#a98b67" stroke-width=".35" stroke-linejoin="round"/><polygon points="141.85,183.96 141.98,143.68 139.79,145.01 139.66,185.29" fill="#8a7154" stroke="#8a7154" stroke-width=".35" stroke-linejoin="round"/><polygon points="147.62,187.49 147.75,147.21 146.90,145.04 146.77,185.32" fill="#af8f6b" stroke="#af8f6b" stroke-width=".35" stroke-linejoin="round"/><polygon points="139.66,185.29 139.79,145.01 138.97,147.17 138.84,187.45" fill="#7b654b" stroke="#7b654b" stroke-width=".35" stroke-linejoin="round"/><polygon points="146.80,189.65 146.93,149.37 147.75,147.21 147.62,187.49" fill="#a98b67" stroke="#a98b67" stroke-width=".35" stroke-linejoin="round"/><polygon points="138.84,187.45 138.97,147.17 139.82,149.34 139.69,189.62" fill="#766148" stroke="#766148" stroke-width=".35" stroke-linejoin="round"/><polygon points="144.61,190.98 144.74,150.70 146.93,149.37 146.80,189.65" fill="#9b7f5f" stroke="#9b7f5f" stroke-width=".35" stroke-linejoin="round"/><polygon points="139.69,189.62 139.82,149.34 142.03,150.69 141.90,190.97" fill="#7b654b" stroke="#7b654b" stroke-width=".35" stroke-linejoin="round"/><polygon points="141.90,190.97 142.03,150.69 144.74,150.70 144.61,190.98" fill="#8a7154" stroke="#8a7154" stroke-width=".35" stroke-linejoin="round"/><polygon points="138.47,142.25 262.18,184.08 262.18,158.13 138.47,116.30" fill="#8c857a" stroke="#8c857a" stroke-width=".35" stroke-linejoin="round"/><polygon points="139.65,145.86 150.43,145.33 150.43,40.21 139.65,43.60" fill="#b2a89b" stroke="#b2a89b" stroke-width=".35" stroke-linejoin="round"/><polygon points="150.43,145.33 161.29,145.47 161.29,37.78 150.43,40.21" fill="#b4aa9c" stroke="#b4aa9c" stroke-width=".35" stroke-linejoin="round"/><polygon points="129.13,147.07 139.65,145.86 139.65,43.60 129.13,47.91" fill="#b0a699" stroke="#b0a699" stroke-width=".35" stroke-linejoin="round"/><polygon points="161.29,145.47 172.03,146.30 172.03,36.33 161.29,37.78" fill="#b6ac9e" stroke="#b6ac9e" stroke-width=".35" stroke-linejoin="round"/><polygon points="119.05,148.93 129.13,147.07 129.13,47.91 119.05,53.10" fill="#ada497" stroke="#ada497" stroke-width=".35" stroke-linejoin="round"/><polygon points="55.90,199.01 138.47,142.25 138.47,116.30 55.90,173.06" fill="#948c80" stroke="#948c80" stroke-width=".35" stroke-linejoin="round"/><polygon points="172.03,146.30 182.47,147.79 182.47,35.91 172.03,36.33" fill="#b7ad9f" stroke="#b7ad9f" stroke-width=".35" stroke-linejoin="round"/><polygon points="109.58,151.41 119.05,148.93 119.05,53.10 109.58,59.13" fill="#aba195" stroke="#aba195" stroke-width=".35" stroke-linejoin="round"/><polygon points="182.47,147.79 192.44,149.92 192.44,36.56 182.47,35.91" fill="#b8aea0" stroke="#b8aea0" stroke-width=".35" stroke-linejoin="round"/><polygon points="252.64,221.12 233.31,174.26 230.79,175.28 250.12,222.14" fill="#7b654b" stroke="#7b654b" stroke-width=".35" stroke-linejoin="round"/><polygon points="250.12,222.14 230.79,175.28 228.85,177.07 248.18,223.93" fill="#766148" stroke="#766148" stroke-width=".35" stroke-linejoin="round"/><polygon points="100.89,154.47 109.58,151.41 109.58,59.13 100.89,65.94" fill="#a89f92" stroke="#a89f92" stroke-width=".35" stroke-linejoin="round"/><polygon points="254.79,221.24 235.46,174.38 233.31,174.26 252.64,221.12" fill="#8a7154" stroke="#8a7154" stroke-width=".35" stroke-linejoin="round"/><polygon points="248.18,223.93 228.85,177.07 228.24,178.93 247.57,225.79" fill="#7b654b" stroke="#7b654b" stroke-width=".35" stroke-linejoin="round"/><polygon points="192.44,149.92 201.76,152.66 201.76,38.48 192.44,36.56" fill="#b8aea0" stroke="#b8aea0" stroke-width=".35" stroke-linejoin="round"/><polygon points="255.73,222.47 236.40,175.61 235.46,174.38 254.79,221.24" fill="#9b7f5f" stroke="#9b7f5f" stroke-width=".35" stroke-linejoin="round"/><polygon points="138.33,132.19 241.19,166.97 241.19,140.15 138.33,105.37" fill="#968e85" stroke="#968e85" stroke-width=".35" stroke-linejoin="round"/><polygon points="247.57,225.79 228.24,178.93 229.18,180.16 248.51,227.02" fill="#8a7154" stroke="#8a7154" stroke-width=".35" stroke-linejoin="round"/><polygon points="255.12,224.33 235.79,177.47 236.40,175.61 255.73,222.47" fill="#a98b67" stroke="#a98b67" stroke-width=".35" stroke-linejoin="round"/><polygon points="135.34,120.05 149.74,110.15 149.74,44.41 135.34,54.31" fill="#948c80" stroke="#948c80" stroke-width=".35" stroke-linejoin="round"/><polygon points="248.51,227.02 229.18,180.16 231.33,180.28 250.66,227.14" fill="#9b7f5f" stroke="#9b7f5f" stroke-width=".35" stroke-linejoin="round"/><polygon points="93.12,158.06 100.89,154.47 100.89,65.94 93.12,73.46" fill="#a59c90" stroke="#a59c90" stroke-width=".35" stroke-linejoin="round"/><polygon points="253.18,226.12 233.85,179.26 235.79,177.47 255.12,224.33" fill="#af8f6b" stroke="#af8f6b" stroke-width=".35" stroke-linejoin="round"/><polygon points="250.66,227.14 231.33,180.28 233.85,179.26 253.18,226.12" fill="#a98b67" stroke="#a98b67" stroke-width=".35" stroke-linejoin="round"/><polygon points="201.76,152.66 210.27,155.95 210.27,42.58 201.76,38.48" fill="#b9afa1" stroke="#b9afa1" stroke-width=".35" stroke-linejoin="round"/><polygon points="86.41,162.11 93.12,158.06 93.12,73.46 86.41,81.64" fill="#a2998d" stroke="#a2998d" stroke-width=".35" stroke-linejoin="round"/><polygon points="210.27,155.95 217.82,159.74 217.82,47.86 210.27,42.58" fill="#b8aea0" stroke="#b8aea0" stroke-width=".35" stroke-linejoin="round"/><polygon points="71.13,178.39 138.33,132.19 138.33,105.37 71.13,151.57" fill="#9e968c" stroke="#9e968c" stroke-width=".35" stroke-linejoin="round"/><polygon points="80.88,166.55 86.41,162.11 86.41,81.64 80.88,90.38" fill="#9f978b" stroke="#9f978b" stroke-width=".35" stroke-linejoin="round"/><polygon points="217.82,159.74 224.29,163.97 224.29,54.00 217.82,47.86" fill="#b8aea0" stroke="#b8aea0" stroke-width=".35" stroke-linejoin="round"/><polygon points="149.74,110.15 235.92,139.29 235.92,73.55 149.74,44.41" fill="#8c857a" stroke="#8c857a" stroke-width=".35" stroke-linejoin="round"/><polygon points="69.34,237.99 88.67,184.51 86.15,183.48 66.82,236.96" fill="#a98b67" stroke="#a98b67" stroke-width=".35" stroke-linejoin="round"/><polygon points="71.49,239.38 90.82,185.90 88.67,184.51 69.34,237.99" fill="#9b7f5f" stroke="#9b7f5f" stroke-width=".35" stroke-linejoin="round"/><polygon points="66.82,236.96 86.15,183.48 84.21,183.22 64.88,236.70" fill="#af8f6b" stroke="#af8f6b" stroke-width=".35" stroke-linejoin="round"/><polygon points="72.43,240.61 91.76,187.13 90.82,185.90 71.49,239.38" fill="#8a7154" stroke="#8a7154" stroke-width=".35" stroke-linejoin="round"/><polygon points="76.62,171.31 80.88,166.55 80.88,90.38 76.62,99.61" fill="#9c9488" stroke="#9c9488" stroke-width=".35" stroke-linejoin="round"/><polygon points="64.88,236.70 84.21,183.22 83.60,183.81 64.27,237.29" fill="#a98b67" stroke="#a98b67" stroke-width=".35" stroke-linejoin="round"/><polygon points="71.82,241.20 91.15,187.72 91.76,187.13 72.43,240.61" fill="#7b654b" stroke="#7b654b" stroke-width=".35" stroke-linejoin="round"/><polygon points="224.29,163.97 229.56,168.56 229.56,60.87 224.29,54.00" fill="#b7ad9f" stroke="#b7ad9f" stroke-width=".35" stroke-linejoin="round"/><polygon points="64.27,237.29 83.60,183.81 84.54,185.04 65.21,238.52" fill="#9b7f5f" stroke="#9b7f5f" stroke-width=".35" stroke-linejoin="round"/><polygon points="69.88,240.94 89.21,187.46 91.15,187.72 71.82,241.20" fill="#766148" stroke="#766148" stroke-width=".35" stroke-linejoin="round"/><polygon points="65.21,238.52 84.54,185.04 86.69,186.43 67.36,239.91" fill="#8a7154" stroke="#8a7154" stroke-width=".35" stroke-linejoin="round"/><polygon points="67.36,239.91 86.69,186.43 89.21,187.46 69.88,240.94" fill="#7b654b" stroke="#7b654b" stroke-width=".35" stroke-linejoin="round"/><polygon points="73.70,176.30 76.62,171.31 76.62,99.61 73.70,109.23" fill="#9a9186" stroke="#9a9186" stroke-width=".35" stroke-linejoin="round"/><polygon points="229.56,168.56 233.55,173.43 233.55,68.32 229.56,60.87" fill="#b6ac9e" stroke="#b6ac9e" stroke-width=".35" stroke-linejoin="round"/><polygon points="138.47,116.30 262.18,158.13 179.62,214.89 55.90,173.06" fill="#c9beaf" stroke="#c9beaf" stroke-width=".35" stroke-linejoin="round"/><polygon points="221.52,149.19 135.34,120.05 135.34,54.31 221.52,83.45" fill="#b1a89a" stroke="#b1a89a" stroke-width=".35" stroke-linejoin="round"/><polygon points="72.18,181.45 73.70,176.30 73.70,109.23 72.18,119.17" fill="#978f83" stroke="#978f83" stroke-width=".35" stroke-linejoin="round"/><polygon points="233.55,173.43 236.17,178.50 236.17,76.24 233.55,68.32" fill="#b4aa9c" stroke="#b4aa9c" stroke-width=".35" stroke-linejoin="round"/><polygon points="149.74,44.41 235.92,73.55 221.52,83.45 135.34,54.31" fill="#c9beaf" stroke="#c9beaf" stroke-width=".35" stroke-linejoin="round"/><polygon points="236.17,178.50 237.40,183.68 237.40,84.52 236.17,76.24" fill="#b2a89b" stroke="#b2a89b" stroke-width=".35" stroke-linejoin="round"/><polygon points="138.33,105.37 241.19,140.15 173.99,186.35 71.13,151.57" fill="#d7ccbf" stroke="#d7ccbf" stroke-width=".35" stroke-linejoin="round"/><polygon points="235.92,139.29 221.52,149.19 221.52,83.45 235.92,73.55" fill="#9d9488" stroke="#9d9488" stroke-width=".35" stroke-linejoin="round"/><polygon points="237.40,183.68 237.21,188.89 237.21,93.05 237.40,84.52" fill="#b0a699" stroke="#b0a699" stroke-width=".35" stroke-linejoin="round"/><polygon points="262.18,184.08 179.62,240.84 179.62,214.89 262.18,158.13" fill="#9d9488" stroke="#9d9488" stroke-width=".35" stroke-linejoin="round"/><polygon points="237.21,188.89 235.59,194.02 235.59,101.74 237.21,93.05" fill="#ada497" stroke="#ada497" stroke-width=".35" stroke-linejoin="round"/><polygon points="241.19,166.97 173.99,213.17 173.99,186.35 241.19,140.15" fill="#a89f95" stroke="#a89f95" stroke-width=".35" stroke-linejoin="round"/><polygon points="235.59,194.02 232.59,199.01 232.59,110.47 235.59,101.74" fill="#aba195" stroke="#aba195" stroke-width=".35" stroke-linejoin="round"/><polygon points="178.10,275.43 177.97,215.37 175.26,215.36 175.39,275.42" fill="#8a7154" stroke="#8a7154" stroke-width=".35" stroke-linejoin="round"/><polygon points="180.31,275.51 180.18,215.45 177.97,215.37 178.10,275.43" fill="#7b654b" stroke="#7b654b" stroke-width=".35" stroke-linejoin="round"/><polygon points="175.39,275.42 175.26,215.36 173.07,215.42 173.20,275.48" fill="#9b7f5f" stroke="#9b7f5f" stroke-width=".35" stroke-linejoin="round"/><polygon points="179.62,240.84 55.90,199.01 55.90,173.06 179.62,214.89" fill="#b1a89a" stroke="#b1a89a" stroke-width=".35" stroke-linejoin="round"/><polygon points="181.16,275.63 181.03,215.57 180.18,215.45 180.31,275.51" fill="#766148" stroke="#766148" stroke-width=".35" stroke-linejoin="round"/><polygon points="173.20,275.48 173.07,215.42 172.25,215.53 172.38,275.59" fill="#a98b67" stroke="#a98b67" stroke-width=".35" stroke-linejoin="round"/><polygon points="232.59,199.01 228.24,203.75 228.24,119.15 232.59,110.47" fill="#a89f92" stroke="#a89f92" stroke-width=".35" stroke-linejoin="round"/><polygon points="180.34,275.74 180.21,215.68 181.03,215.57 181.16,275.63" fill="#7b654b" stroke="#7b654b" stroke-width=".35" stroke-linejoin="round"/><polygon points="172.38,275.59 172.25,215.53 173.10,215.65 173.23,275.71" fill="#af8f6b" stroke="#af8f6b" stroke-width=".35" stroke-linejoin="round"/><polygon points="173.99,213.17 71.13,178.39 71.13,151.57 173.99,186.35" fill="#beb4a8" stroke="#beb4a8" stroke-width=".35" stroke-linejoin="round"/><polygon points="178.15,275.80 178.02,215.74 180.21,215.68 180.34,275.74" fill="#8a7154" stroke="#8a7154" stroke-width=".35" stroke-linejoin="round"/><polygon points="173.23,275.71 173.10,215.65 175.31,215.73 175.44,275.79" fill="#a98b67" stroke="#a98b67" stroke-width=".35" stroke-linejoin="round"/><polygon points="175.44,275.79 175.31,215.73 178.02,215.74 178.15,275.80" fill="#9b7f5f" stroke="#9b7f5f" stroke-width=".35" stroke-linejoin="round"/><polygon points="228.24,203.75 222.63,208.17 222.63,127.70 228.24,119.15" fill="#a59c90" stroke="#a59c90" stroke-width=".35" stroke-linejoin="round"/><polygon points="222.63,208.17 215.85,212.19 215.85,136.02 222.63,127.70" fill="#a2998d" stroke="#a2998d" stroke-width=".35" stroke-linejoin="round"/><polygon points="215.85,212.19 208.02,215.74 208.02,144.04 215.85,136.02" fill="#9f978b" stroke="#9f978b" stroke-width=".35" stroke-linejoin="round"/><polygon points="208.02,215.74 199.28,218.76 199.28,151.69 208.02,144.04" fill="#9c9488" stroke="#9c9488" stroke-width=".35" stroke-linejoin="round"/><polygon points="199.28,218.76 189.77,221.21 189.77,158.93 199.28,151.69" fill="#9a9186" stroke="#9a9186" stroke-width=".35" stroke-linejoin="round"/></svg>