<svg xmlns="http://www.w3.org/2000/svg" viewBox="-3048.0 -3295.0 6510.0 6032.5"><defs><pattern id="oak" width="130" height="55" patternUnits="userSpaceOnUse"><rect width="130" height="55" fill="#bd9364"/><path d="M0 12 Q60 2 130 17 M0 36 Q60 44 130 32" stroke="#99734e" stroke-width="3" fill="none" opacity=".45"/></pattern></defs><polygon points="-1086.75,452.81 -828.00,345.00 -828.00,-993.75 -1086.75,-885.94" fill="#79573c" stroke="#674b36" stroke-width="7"/><polygon points="-828.00,345.00 0.00,690.00 0.00,-648.75 -828.00,-993.75" fill="#79573c" stroke="#674b36" stroke-width="7"/><polygon points="0.00,690.00 -258.75,797.81 -258.75,-540.94 0.00,-648.75" fill="#79573c" stroke="#674b36" stroke-width="7"/><polygon points="-258.75,797.81 -1086.75,452.81 -1086.75,-885.94 -258.75,-540.94" fill="#79573c" stroke="#674b36" stroke-width="7"/><polygon points="-1086.75,-885.94 -828.00,-993.75 0.00,-648.75 -258.75,-540.94" fill="url(#oak)" stroke="#775738" stroke-width="7"/><polygon points="-1345.50,560.62 -1086.75,452.81 -1086.75,-1034.69 -1345.50,-926.88" fill="#79573c" stroke="#674b36" stroke-width="7"/><polygon points="-1086.75,452.81 -258.75,797.81 -258.75,-689.69 -1086.75,-1034.69" fill="#79573c" stroke="#674b36" stroke-width="7"/><polygon points="-258.75,797.81 -517.50,905.62 -517.50,-581.88 -258.75,-689.69" fill="#79573c" stroke="#674b36" stroke-width="7"/><polygon points="-517.50,905.62 -1345.50,560.62 -1345.50,-926.88 -517.50,-581.88" fill="#79573c" stroke="#674b36" stroke-width="7"/><polygon points="-1345.50,-926.88 -1086.75,-1034.69 -258.75,-689.69 -517.50,-581.88" fill="url(#oak)" stroke="#775738" stroke-width="7"/><polygon points="-1604.25,668.44 -1345.50,560.62 -1345.50,-1075.62 -1604.25,-967.81" fill="#79573c" stroke="#674b36" stroke-width="7"/><polygon points="-1345.50,560.62 -517.50,905.62 -517.50,-730.62 -1345.50,-1075.62" fill="#79573c" stroke="#674b36" stroke-width="7"/><polygon points="-517.50,905.62 -776.25,1013.44 -776.25,-622.81 -517.50,-730.62" fill="#79573c" stroke="#674b36" stroke-width="7"/><polygon points="-776.25,1013.44 -1604.25,668.44 -1604.25,-967.81 -776.25,-622.81" fill="#79573c" stroke="#674b36" stroke-width="7"/><polygon points="-1604.25,-967.81 -1345.50,-1075.62 -517.50,-730.62 -776.25,-622.81" fill="url(#oak)" stroke="#775738" stroke-width="7"/><polygon points="-828.00,345.00 0.00,0.00 0.00,-1190.00 -828.00,-845.00" fill="#79573c" stroke="#674b36" stroke-width="7"/><polygon points="0.00,0.00 3312.00,1380.00 3312.00,190.00 0.00,-1190.00" fill="#79573c" stroke="#674b36" stroke-width="7"/><polygon points="3312.00,1380.00 2484.00,1725.00 2484.00,535.00 3312.00,190.00" fill="#79573c" stroke="#674b36" stroke-width="7"/><polygon points="2484.00,1725.00 -828.00,345.00 -828.00,-845.00 2484.00,535.00" fill="#79573c" stroke="#674b36" stroke-width="7"/><polygon points="-828.00,-845.00 0.00,-1190.00 3312.00,190.00 2484.00,535.00" fill="url(#oak)" stroke="#775738" stroke-width="7"/><polygon points="-1863.00,776.25 -1604.25,668.44 -1604.25,-1116.56 -1863.00,-1008.75" fill="#79573c" stroke="#674b36" stroke-width="7"/><polygon points="-1604.25,668.44 -776.25,1013.44 -776.25,-771.56 -1604.25,-1116.56" fill="#79573c" stroke="#674b36" stroke-width="7"/><polygon points="-776.25,1013.44 -1035.00,1121.25 -1035.00,-663.75 -776.25,-771.56" fill="#79573c" stroke="#674b36" stroke-width="7"/><polygon points="-1035.00,1121.25 -1863.00,776.25 -1863.00,-1008.75 -1035.00,-663.75" fill="#79573c" stroke="#674b36" stroke-width="7"/><polygon points="-1863.00,-1008.75 -1604.25,-1116.56 -776.25,-771.56 -1035.00,-663.75" fill="url(#oak)" stroke="#775738" stroke-width="7"/><polygon points="-2121.75,884.06 -1863.00,776.25 -1863.00,-1157.50 -2121.75,-1049.69" fill="#79573c" stroke="#674b36" stroke-width="7"/><polygon points="-1863.00,776.25 -1035.00,1121.25 -1035.00,-812.50 -1863.00,-1157.50" fill="#79573c" stroke="#674b36" stroke-width="7"/><polygon points="-1035.00,1121.25 -1293.75,1229.06 -1293.75,-704.69 -1035.00,-812.50" fill="#79573c" stroke="#674b36" stroke-width="7"/><polygon points="-1293.75,1229.06 -2121.75,884.06 -2121.75,-1049.69 -1293.75,-704.69" fill="#79573c" stroke="#674b36" stroke-width="7"/><polygon points="-2121.75,-1049.69 -1863.00,-1157.50 -1035.00,-812.50 -1293.75,-704.69" fill="url(#oak)" stroke="#775738" stroke-width="7"/><polygon points="35.49,951.21 331.20,828.00 331.20,-213.25 35.49,-90.04" fill="#79573c" stroke="#674b36" stroke-width="7"/><polygon points="331.20,828.00 1324.80,1242.00 1324.80,200.75 331.20,-213.25" fill="#79573c" stroke="#674b36" stroke-width="7"/><polygon points="1324.80,1242.00 1029.09,1365.21 1029.09,323.96 1324.80,200.75" fill="#79573c" stroke="#674b36" stroke-width="7"/><polygon points="1029.09,1365.21 35.49,951.21 35.49,-90.04 1029.09,323.96" fill="#79573c" stroke="#674b36" stroke-width="7"/><polygon points="35.49,-90.04 331.20,-213.25 1324.80,200.75 1029.09,323.96" fill="url(#oak)" stroke="#775738" stroke-width="7"/><polygon points="-2380.50,991.87 -2121.75,884.06 -2121.75,-1198.44 -2380.50,-1090.63" fill="#79573c" stroke="#674b36" stroke-width="7"/><polygon points="-2121.75,884.06 -1293.75,1229.06 -1293.75,-853.44 -2121.75,-1198.44" fill="#79573c" stroke="#674b36" stroke-width="7"/><polygon points="-1293.75,1229.06 -1552.50,1336.88 -1552.50,-745.62 -1293.75,-853.44" fill="#79573c" stroke="#674b36" stroke-width="7"/><polygon points="-1552.50,1336.88 -2380.50,991.87 -2380.50,-1090.63 -1552.50,-745.62" fill="#79573c" stroke="#674b36" stroke-width="7"/><polygon points="-2380.50,-1090.63 -2121.75,-1198.44 -1293.75,-853.44 -1552.50,-745.62" fill="url(#oak)" stroke="#775738" stroke-width="7"/><polygon points="-2639.25,1099.69 -2380.50,991.87 -2380.50,-1239.38 -2639.25,-1131.56" fill="#79573c" stroke="#674b36" stroke-width="7"/><polygon points="-2380.50,991.87 -1552.50,1336.88 -1552.50,-894.38 -2380.50,-1239.38" fill="#79573c" stroke="#674b36" stroke-width="7"/><polygon points="-1552.50,1336.88 -1811.25,1444.69 -1811.25,-786.56 -1552.50,-894.38" fill="#79573c" stroke="#674b36" stroke-width="7"/><polygon points="-1811.25,1444.69 -2639.25,1099.69 -2639.25,-1131.56 -1811.25,-786.56" fill="#79573c" stroke="#674b36" stroke-width="7"/><polygon points="-2639.25,-1131.56 -2380.50,-1239.38 -1552.50,-894.38 -1811.25,-786.56" fill="url(#oak)" stroke="#775738" stroke-width="7"/><polygon points="-260.23,1074.43 35.49,951.21 35.49,58.71 -260.23,181.93" fill="#79573c" stroke="#674b36" stroke-width="7"/><polygon points="35.49,951.21 1029.09,1365.21 1029.09,472.71 35.49,58.71" fill="#79573c" stroke="#674b36" stroke-width="7"/><polygon points="1029.09,1365.21 733.37,1488.43 733.37,595.93 1029.09,472.71" fill="#79573c" stroke="#674b36" stroke-width="7"/><polygon points="733.37,1488.43 -260.23,1074.43 -260.23,181.93 733.37,595.93" fill="#79573c" stroke="#674b36" stroke-width="7"/><polygon points="-260.23,181.93 35.49,58.71 1029.09,472.71 733.37,595.93" fill="url(#oak)" stroke="#775738" stroke-width="7"/><polygon points="-2898.00,1207.50 -2639.25,1099.69 -2639.25,-1280.31 -2898.00,-1172.50" fill="#79573c" stroke="#674b36" stroke-width="7"/><polygon points="-2639.25,1099.69 -1811.25,1444.69 -1811.25,-935.31 -2639.25,-1280.31" fill="#79573c" stroke="#674b36" stroke-width="7"/><polygon points="-1811.25,1444.69 -2070.00,1552.50 -2070.00,-827.50 -1811.25,-935.31" fill="#79573c" stroke="#674b36" stroke-width="7"/><polygon points="-2070.00,1552.50 -2898.00,1207.50 -2898.00,-1172.50 -2070.00,-827.50" fill="#79573c" stroke="#674b36" stroke-width="7"/><polygon points="-2898.00,-1172.50 -2639.25,-1280.31 -1811.25,-935.31 -2070.00,-827.50" fill="url(#oak)" stroke="#775738" stroke-width="7"/><polygon points="-555.94,1197.64 -260.23,1074.43 -260.23,330.68 -555.94,453.89" fill="#79573c" stroke="#674b36" stroke-width="7"/><polygon points="-260.23,1074.43 733.37,1488.43 733.37,744.68 -260.23,330.68" fill="#79573c" stroke="#674b36" stroke-width="7"/><polygon points="733.37,1488.43 437.66,1611.64 437.66,867.89 733.37,744.68" fill="#79573c" stroke="#674b36" stroke-width="7"/><polygon points="437.66,1611.64 -555.94,1197.64 -555.94,453.89 437.66,867.89" fill="#79573c" stroke="#674b36" stroke-width="7"/><polygon points="-555.94,453.89 -260.23,330.68 733.37,744.68 437.66,867.89" fill="url(#oak)" stroke="#775738" stroke-width="7"/><polygon points="-851.66,1320.86 -555.94,1197.64 -555.94,602.64 -851.66,725.86" fill="#79573c" stroke="#674b36" stroke-width="7"/><polygon points="-555.94,1197.64 437.66,1611.64 437.66,1016.64 -555.94,602.64" fill="#79573c" stroke="#674b36" stroke-width="7"/><polygon points="437.66,1611.64 141.94,1734.86 141.94,1139.86 437.66,1016.64" fill="#79573c" stroke="#674b36" stroke-width="7"/><polygon points="141.94,1734.86 -851.66,1320.86 -851.66,725.86 141.94,1139.86" fill="#79573c" stroke="#674b36" stroke-width="7"/><polygon points="-851.66,725.86 -555.94,602.64 437.66,1016.64 141.94,1139.86" fill="url(#oak)" stroke="#775738" stroke-width="7"/><polygon points="-1147.37,1444.07 -851.66,1320.86 -851.66,874.61 -1147.37,997.82" fill="#79573c" stroke="#674b36" stroke-width="7"/><polygon points="-851.66,1320.86 141.94,1734.86 141.94,1288.61 -851.66,874.61" fill="#79573c" stroke="#674b36" stroke-width="7"/><polygon points="141.94,1734.86 -153.77,1858.07 -153.77,1411.82 141.94,1288.61" fill="#79573c" stroke="#674b36" stroke-width="7"/><polygon points="-153.77,1858.07 -1147.37,1444.07 -1147.37,997.82 -153.77,1411.82" fill="#79573c" stroke="#674b36" stroke-width="7"/><polygon points="-1147.37,997.82 -851.66,874.61 141.94,1288.61 -153.77,1411.82" fill="url(#oak)" stroke="#775738" stroke-width="7"/><polygon points="1397.25,1487.81 1656.00,1380.00 1656.00,41.25 1397.25,149.06" fill="#79573c" stroke="#674b36" stroke-width="7"/><polygon points="1656.00,1380.00 2484.00,1725.00 2484.00,386.25 1656.00,41.25" fill="#79573c" stroke="#674b36" stroke-width="7"/><polygon points="2484.00,1725.00 2225.25,1832.81 2225.25,494.06 2484.00,386.25" fill="#79573c" stroke="#674b36" stroke-width="7"/><polygon points="2225.25,1832.81 1397.25,1487.81 1397.25,149.06 2225.25,494.06" fill="#79573c" stroke="#674b36" stroke-width="7"/><polygon points="1397.25,149.06 1656.00,41.25 2484.00,386.25 2225.25,494.06" fill="url(#oak)" stroke="#775738" stroke-width="7"/><polygon points="-1443.09,1567.29 -1147.37,1444.07 -1147.37,1146.57 -1443.09,1269.79" fill="#79573c" stroke="#674b36" stroke-width="7"/><polygon points="-1147.37,1444.07 -153.77,1858.07 -153.77,1560.57 -1147.37,1146.57" fill="#79573c" stroke="#674b36" stroke-width="7"/><polygon points="-153.77,1858.07 -449.49,1981.29 -449.49,1683.79 -153.77,1560.57" fill="#79573c" stroke="#674b36" stroke-width="7"/><polygon points="-449.49,1981.29 -1443.09,1567.29 -1443.09,1269.79 -449.49,1683.79" fill="#79573c" stroke="#674b36" stroke-width="7"/><polygon points="-1443.09,1269.79 -1147.37,1146.57 -153.77,1560.57 -449.49,1683.79" fill="url(#oak)" stroke="#775738" stroke-width="7"/><polygon points="1138.50,1595.62 1397.25,1487.81 1397.25,0.31 1138.50,108.12" fill="#79573c" stroke="#674b36" stroke-width="7"/><polygon points="1397.25,1487.81 2225.25,1832.81 2225.25,345.31 1397.25,0.31" fill="#79573c" stroke="#674b36" stroke-width="7"/><polygon points="2225.25,1832.81 1966.50,1940.62 1966.50,453.12 2225.25,345.31" fill="#79573c" stroke="#674b36" stroke-width="7"/><polygon points="1966.50,1940.62 1138.50,1595.62 1138.50,108.12 1966.50,453.12" fill="#79573c" stroke="#674b36" stroke-width="7"/><polygon points="1138.50,108.12 1397.25,0.31 2225.25,345.31 1966.50,453.12" fill="url(#oak)" stroke="#775738" stroke-width="7"/><polygon points="879.75,1703.44 1138.50,1595.62 1138.50,-40.63 879.75,67.19" fill="#79573c" stroke="#674b36" stroke-width="7"/><polygon points="1138.50,1595.62 1966.50,1940.62 1966.50,304.38 1138.50,-40.63" fill="#79573c" stroke="#674b36" stroke-width="7"/><polygon points="1966.50,1940.62 1707.75,2048.44 1707.75,412.19 1966.50,304.38" fill="#79573c" stroke="#674b36" stroke-width="7"/><polygon points="1707.75,2048.44 879.75,1703.44 879.75,67.19 1707.75,412.19" fill="#79573c" stroke="#674b36" stroke-width="7"/><polygon points="879.75,67.19 1138.50,-40.63 1966.50,304.38 1707.75,412.19" fill="url(#oak)" stroke="#775738" stroke-width="7"/><polygon points="-1738.80,1690.50 -1443.09,1567.29 -1443.09,1418.54 -1738.80,1541.75" fill="#79573c" stroke="#674b36" stroke-width="7"/><polygon points="-1443.09,1567.29 -449.49,1981.29 -449.49,1832.54 -1443.09,1418.54" fill="#79573c" stroke="#674b36" stroke-width="7"/><polygon points="-449.49,1981.29 -745.20,2104.50 -745.20,1955.75 -449.49,1832.54" fill="#79573c" stroke="#674b36" stroke-width="7"/><polygon points="-745.20,2104.50 -1738.80,1690.50 -1738.80,1541.75 -745.20,1955.75" fill="#79573c" stroke="#674b36" stroke-width="7"/><polygon points="-1738.80,1541.75 -1443.09,1418.54 -449.49,1832.54 -745.20,1955.75" fill="url(#oak)" stroke="#775738" stroke-width="7"/><polygon points="621.00,1811.25 879.75,1703.44 879.75,-81.56 621.00,26.25" fill="#79573c" stroke="#674b36" stroke-width="7"/><polygon points="879.75,1703.44 1707.75,2048.44 1707.75,263.44 879.75,-81.56" fill="#79573c" stroke="#674b36" stroke-width="7"/><polygon points="1707.75,2048.44 1449.00,2156.25 1449.00,371.25 1707.75,263.44" fill="#79573c" stroke="#674b36" stroke-width="7"/><polygon points="1449.00,2156.25 621.00,1811.25 621.00,26.25 1449.00,371.25" fill="#79573c" stroke="#674b36" stroke-width="7"/><polygon points="621.00,26.25 879.75,-81.56 1707.75,263.44 1449.00,371.25" fill="url(#oak)" stroke="#775738" stroke-width="7"/><polygon points="362.25,1919.06 621.00,1811.25 621.00,-122.50 362.25,-14.69" fill="#79573c" stroke="#674b36" stroke-width="7"/><polygon points="621.00,1811.25 1449.00,2156.25 1449.00,222.50 621.00,-122.50" fill="#79573c" stroke="#674b36" stroke-width="7"/><polygon points="1449.00,2156.25 1190.25,2264.06 1190.25,330.31 1449.00,222.50" fill="#79573c" stroke="#674b36" stroke-width="7"/><polygon points="1190.25,2264.06 362.25,1919.06 362.25,-14.69 1190.25,330.31" fill="#79573c" stroke="#674b36" stroke-width="7"/><polygon points="362.25,-14.69 621.00,-122.50 1449.00,222.50 1190.25,330.31" fill="url(#oak)" stroke="#775738" stroke-width="7"/><polygon points="103.50,2026.87 362.25,1919.06 362.25,-163.44 103.50,-55.63" fill="#79573c" stroke="#674b36" stroke-width="7"/><polygon points="362.25,1919.06 1190.25,2264.06 1190.25,181.56 362.25,-163.44" fill="#79573c" stroke="#674b36" stroke-width="7"/><polygon points="1190.25,2264.06 931.50,2371.88 931.50,289.38 1190.25,181.56" fill="#79573c" stroke="#674b36" stroke-width="7"/><polygon points="931.50,2371.88 103.50,2026.87 103.50,-55.63 931.50,289.38" fill="#79573c" stroke="#674b36" stroke-width="7"/><polygon points="103.50,-55.63 362.25,-163.44 1190.25,181.56 931.50,289.38" fill="url(#oak)" stroke="#775738" stroke-width="7"/><polygon points="-155.25,2134.69 103.50,2026.87 103.50,-204.38 -155.25,-96.56" fill="#79573c" stroke="#674b36" stroke-width="7"/><polygon points="103.50,2026.87 931.50,2371.88 931.50,140.62 103.50,-204.38" fill="#79573c" stroke="#674b36" stroke-width="7"/><polygon points="931.50,2371.88 672.75,2479.69 672.75,248.44 931.50,140.62" fill="#79573c" stroke="#674b36" stroke-width="7"/><polygon points="672.75,2479.69 -155.25,2134.69 -155.25,-96.56 672.75,248.44" fill="#79573c" stroke="#674b36" stroke-width="7"/><polygon points="-155.25,-96.56 103.50,-204.38 931.50,140.62 672.75,248.44" fill="url(#oak)" stroke="#775738" stroke-width="7"/><polygon points="-414.00,2242.50 -155.25,2134.69 -155.25,-245.31 -414.00,-137.50" fill="#79573c" stroke="#674b36" stroke-width="7"/><polygon points="-155.25,2134.69 672.75,2479.69 672.75,99.69 -155.25,-245.31" fill="#79573c" stroke="#674b36" stroke-width="7"/><polygon points="672.75,2479.69 414.00,2587.50 414.00,207.50 672.75,99.69" fill="#79573c" stroke="#674b36" stroke-width="7"/><polygon points="414.00,2587.50 -414.00,2242.50 -414.00,-137.50 414.00,207.50" fill="#79573c" stroke="#674b36" stroke-width="7"/><polygon points="-414.00,-137.50 -155.25,-245.31 672.75,99.69 414.00,207.50" fill="url(#oak)" stroke="#775738" stroke-width="7"/><polyline points="-1720.58,794.66 -1443.09,679.04" stroke="#343d40" stroke-width="30" fill="none"/><polyline points="-1720.58,1534.16 -1720.58,794.66" stroke="#535a5a" stroke-width="18"/><polyline points="-449.49,1093.04 -726.98,1208.66" stroke="#343d40" stroke-width="30" fill="none"/><polyline points="-449.49,1832.54 -449.49,1093.04" stroke="#535a5a" stroke-width="18"/><polyline points="-1443.09,530.29 -1147.37,407.07" stroke="#343d40" stroke-width="30" fill="none"/><polyline points="-1443.09,1269.79 -1443.09,530.29" stroke="#535a5a" stroke-width="18"/><polyline points="-153.77,821.07 -449.49,944.29" stroke="#343d40" stroke-width="30" fill="none"/><polyline points="-153.77,1560.57 -153.77,821.07" stroke="#535a5a" stroke-width="18"/><polyline points="-1147.37,258.32 -851.66,135.11" stroke="#343d40" stroke-width="30" fill="none"/><polyline points="-1147.37,997.82 -1147.37,258.32" stroke="#535a5a" stroke-width="18"/><polyline points="141.94,549.11 -153.77,672.32" stroke="#343d40" stroke-width="30" fill="none"/><polyline points="141.94,1288.61 141.94,549.11" stroke="#535a5a" stroke-width="18"/><polyline points="-851.66,-13.64 -555.94,-136.86" stroke="#343d40" stroke-width="30" fill="none"/><polyline points="-851.66,725.86 -851.66,-13.64" stroke="#535a5a" stroke-width="18"/><polyline points="437.66,277.14 141.94,400.36" stroke="#343d40" stroke-width="30" fill="none"/><polyline points="437.66,1016.64 437.66,277.14" stroke="#535a5a" stroke-width="18"/><polyline points="-555.94,-285.61 -260.23,-408.82" stroke="#343d40" stroke-width="30" fill="none"/><polyline points="-555.94,453.89 -555.94,-285.61" stroke="#535a5a" stroke-width="18"/><polyline points="733.37,5.18 437.66,128.39" stroke="#343d40" stroke-width="30" fill="none"/><polyline points="733.37,744.68 733.37,5.18" stroke="#535a5a" stroke-width="18"/><polyline points="-260.23,-557.57 35.49,-680.79" stroke="#343d40" stroke-width="30" fill="none"/><polyline points="-260.23,181.93 -260.23,-557.57" stroke="#535a5a" stroke-width="18"/><polyline points="1029.09,-266.79 733.37,-143.57" stroke="#343d40" stroke-width="30" fill="none"/><polyline points="1029.09,472.71 1029.09,-266.79" stroke="#535a5a" stroke-width="18"/><polyline points="35.49,-829.54 331.20,-952.75" stroke="#343d40" stroke-width="30" fill="none"/><polyline points="35.49,-90.04 35.49,-829.54" stroke="#535a5a" stroke-width="18"/><polyline points="1324.80,-538.75 1029.09,-415.54" stroke="#343d40" stroke-width="30" fill="none"/><polyline points="1324.80,200.75 1324.80,-538.75" stroke="#535a5a" stroke-width="18"/><polyline points="-809.78,-1576.91 0.00,-1914.32" stroke="#343d40" stroke-width="30" fill="none"/><polyline points="-809.78,-837.41 -809.78,-1576.91" stroke="#535a5a" stroke-width="18"/><polyline points="0.00,-1914.32 3275.57,-549.50" stroke="#343d40" stroke-width="30" fill="none"/><polyline points="0.00,-1174.82 0.00,-1914.32" stroke="#535a5a" stroke-width="18"/><polyline points="3275.57,-549.50 2465.78,-212.09" stroke="#343d40" stroke-width="30" fill="none"/><polyline points="3275.57,190.00 3275.57,-549.50" stroke="#535a5a" stroke-width="18"/><polyline points="-1068.53,-1617.85 -809.78,-1725.66" stroke="#343d40" stroke-width="30" fill="none"/><polyline points="-1068.53,-878.35 -1068.53,-1617.85" stroke="#535a5a" stroke-width="18"/><polyline points="0.00,-1388.25 -258.75,-1280.44" stroke="#343d40" stroke-width="30" fill="none"/><polyline points="0.00,-648.75 0.00,-1388.25" stroke="#535a5a" stroke-width="18"/><polyline points="1397.25,-590.44 1656.00,-698.25" stroke="#343d40" stroke-width="30" fill="none"/><polyline points="1397.25,149.06 1397.25,-590.44" stroke="#535a5a" stroke-width="18"/><polyline points="2465.78,-360.84 2207.03,-253.03" stroke="#343d40" stroke-width="30" fill="none"/><polyline points="2465.78,378.66 2465.78,-360.84" stroke="#535a5a" stroke-width="18"/><polyline points="-1327.28,-1658.79 -1068.53,-1766.60" stroke="#343d40" stroke-width="30" fill="none"/><polyline points="-1327.28,-919.29 -1327.28,-1658.79" stroke="#535a5a" stroke-width="18"/><polyline points="-258.75,-1429.19 -517.50,-1321.38" stroke="#343d40" stroke-width="30" fill="none"/><polyline points="-258.75,-689.69 -258.75,-1429.19" stroke="#535a5a" stroke-width="18"/><polyline points="1138.50,-631.38 1397.25,-739.19" stroke="#343d40" stroke-width="30" fill="none"/><polyline points="1138.50,108.12 1138.50,-631.38" stroke="#535a5a" stroke-width="18"/><polyline points="2207.03,-401.78 1948.28,-293.97" stroke="#343d40" stroke-width="30" fill="none"/><polyline points="2207.03,337.72 2207.03,-401.78" stroke="#535a5a" stroke-width="18"/><polyline points="-1586.03,-1699.72 -1327.28,-1807.54" stroke="#343d40" stroke-width="30" fill="none"/><polyline points="-1586.03,-960.22 -1586.03,-1699.72" stroke="#535a5a" stroke-width="18"/><polyline points="-517.50,-1470.12 -776.25,-1362.31" stroke="#343d40" stroke-width="30" fill="none"/><polyline points="-517.50,-730.62 -517.50,-1470.12" stroke="#535a5a" stroke-width="18"/><polyline points="879.75,-672.31 1138.50,-780.13" stroke="#343d40" stroke-width="30" fill="none"/><polyline points="879.75,67.19 879.75,-672.31" stroke="#535a5a" stroke-width="18"/><polyline points="1948.28,-442.72 1689.53,-334.90" stroke="#343d40" stroke-width="30" fill="none"/><polyline points="1948.28,296.78 1948.28,-442.72" stroke="#535a5a" stroke-width="18"/><polyline points="-1844.78,-1740.66 -1586.03,-1848.47" stroke="#343d40" stroke-width="30" fill="none"/><polyline points="-1844.78,-1001.16 -1844.78,-1740.66" stroke="#535a5a" stroke-width="18"/><polyline points="-776.25,-1511.06 -1035.00,-1403.25" stroke="#343d40" stroke-width="30" fill="none"/><polyline points="-776.25,-771.56 -776.25,-1511.06" stroke="#535a5a" stroke-width="18"/><polyline points="621.00,-713.25 879.75,-821.06" stroke="#343d40" stroke-width="30" fill="none"/><polyline points="621.00,26.25 621.00,-713.25" stroke="#535a5a" stroke-width="18"/><polyline points="1689.53,-483.65 1430.78,-375.84" stroke="#343d40" stroke-width="30" fill="none"/><polyline points="1689.53,255.85 1689.53,-483.65" stroke="#535a5a" stroke-width="18"/><polyline points="-2103.53,-1781.60 -1844.78,-1889.41" stroke="#343d40" stroke-width="30" fill="none"/><polyline points="-2103.53,-1042.10 -2103.53,-1781.60" stroke="#535a5a" stroke-width="18"/><polyline points="-1035.00,-1552.00 -1293.75,-1444.19" stroke="#343d40" stroke-width="30" fill="none"/><polyline points="-1035.00,-812.50 -1035.00,-1552.00" stroke="#535a5a" stroke-width="18"/><polyline points="362.25,-754.19 621.00,-862.00" stroke="#343d40" stroke-width="30" fill="none"/><polyline points="362.25,-14.69 362.25,-754.19" stroke="#535a5a" stroke-width="18"/><polyline points="1430.78,-524.59 1172.03,-416.78" stroke="#343d40" stroke-width="30" fill="none"/><polyline points="1430.78,214.91 1430.78,-524.59" stroke="#535a5a" stroke-width="18"/><polyline points="-2362.28,-1822.54 -2103.53,-1930.35" stroke="#343d40" stroke-width="30" fill="none"/><polyline points="-2362.28,-1083.04 -2362.28,-1822.54" stroke="#535a5a" stroke-width="18"/><polyline points="-1293.75,-1592.94 -1552.50,-1485.12" stroke="#343d40" stroke-width="30" fill="none"/><polyline points="-1293.75,-853.44 -1293.75,-1592.94" stroke="#535a5a" stroke-width="18"/><polyline points="103.50,-795.13 362.25,-902.94" stroke="#343d40" stroke-width="30" fill="none"/><polyline points="103.50,-55.63 103.50,-795.13" stroke="#535a5a" stroke-width="18"/><polyline points="1172.03,-565.53 913.28,-457.72" stroke="#343d40" stroke-width="30" fill="none"/><polyline points="1172.03,173.97 1172.03,-565.53" stroke="#535a5a" stroke-width="18"/><polyline points="-2621.03,-1863.47 -2362.28,-1971.29" stroke="#343d40" stroke-width="30" fill="none"/><polyline points="-2621.03,-1123.97 -2621.03,-1863.47" stroke="#535a5a" stroke-width="18"/><polyline points="-1552.50,-1633.88 -1811.25,-1526.06" stroke="#343d40" stroke-width="30" fill="none"/><polyline points="-1552.50,-894.38 -1552.50,-1633.88" stroke="#535a5a" stroke-width="18"/><polyline points="-155.25,-836.06 103.50,-943.88" stroke="#343d40" stroke-width="30" fill="none"/><polyline points="-155.25,-96.56 -155.25,-836.06" stroke="#535a5a" stroke-width="18"/><polyline points="913.28,-606.47 654.53,-498.65" stroke="#343d40" stroke-width="30" fill="none"/><polyline points="913.28,133.03 913.28,-606.47" stroke="#535a5a" stroke-width="18"/><polyline points="-2861.57,-1912.00 -2621.03,-2012.22" stroke="#343d40" stroke-width="30" fill="none"/><polyline points="-2861.57,-1172.50 -2861.57,-1912.00" stroke="#535a5a" stroke-width="18"/><polyline points="-1811.25,-1674.81 -2051.78,-1574.59" stroke="#343d40" stroke-width="30" fill="none"/><polyline points="-1811.25,-935.31 -1811.25,-1674.81" stroke="#535a5a" stroke-width="18"/><polyline points="-395.78,-884.59 -155.25,-984.81" stroke="#343d40" stroke-width="30" fill="none"/><polyline points="-395.78,-145.09 -395.78,-884.59" stroke="#535a5a" stroke-width="18"/><polyline points="654.53,-647.40 414.00,-547.18" stroke="#343d40" stroke-width="30" fill="none"/><polyline points="654.53,92.10 654.53,-647.40" stroke="#535a5a" stroke-width="18"/></svg>