<svg xmlns="http://www.w3.org/2000/svg" viewBox="-2310.0 -3295.0 4044.0 5005.0"><defs><pattern id="oak" width="130" height="55" patternUnits="userSpaceOnUse"><rect width="130" height="55" fill="#bd9364"/><path d="M0 12 Q60 2 130 17 M0 36 Q60 44 130 32" stroke="#99734e" stroke-width="3" fill="none" opacity=".45"/></pattern></defs><polygon points="-720.00,-851.75 0.00,-1151.75 0.00,-1190.00 -720.00,-890.00" fill="#79573c" stroke="#674b36" stroke-width="7"/><polygon points="0.00,-1151.75 1584.00,-491.75 1584.00,-530.00 0.00,-1190.00" fill="#79573c" stroke="#674b36" stroke-width="7"/><polygon points="1584.00,-491.75 864.00,-191.75 864.00,-230.00 1584.00,-530.00" fill="#79573c" stroke="#674b36" stroke-width="7"/><polygon points="864.00,-191.75 -720.00,-851.75 -720.00,-890.00 864.00,-230.00" fill="#79573c" stroke="#674b36" stroke-width="7"/><polygon points="-720.00,-890.00 0.00,-1190.00 1584.00,-530.00 864.00,-230.00" fill="url(#oak)" stroke="#775738" stroke-width="7"/><polygon points="-925.71,-617.29 -720.00,-703.00 -720.00,-741.25 -925.71,-655.54" fill="#79573c" stroke="#674b36" stroke-width="7"/><polygon points="-720.00,-703.00 0.00,-403.00 0.00,-441.25 -720.00,-741.25" fill="#79573c" stroke="#674b36" stroke-width="7"/><polygon points="0.00,-403.00 -205.71,-317.29 -205.71,-355.54 0.00,-441.25" fill="#79573c" stroke="#674b36" stroke-width="7"/><polygon points="-205.71,-317.29 -925.71,-617.29 -925.71,-655.54 -205.71,-355.54" fill="#79573c" stroke="#674b36" stroke-width="7"/><polygon points="-925.71,-655.54 -720.00,-741.25 0.00,-441.25 -205.71,-355.54" fill="url(#oak)" stroke="#775738" stroke-width="7"/><polygon points="-1131.43,-382.82 -925.71,-468.54 -925.71,-506.79 -1131.43,-421.07" fill="#79573c" stroke="#674b36" stroke-width="7"/><polygon points="-925.71,-468.54 -205.71,-168.54 -205.71,-206.79 -925.71,-506.79" fill="#79573c" stroke="#674b36" stroke-width="7"/><polygon points="-205.71,-168.54 -411.43,-82.82 -411.43,-121.07 -205.71,-206.79" fill="#79573c" stroke="#674b36" stroke-width="7"/><polygon points="-411.43,-82.82 -1131.43,-382.82 -1131.43,-421.07 -411.43,-121.07" fill="#79573c" stroke="#674b36" stroke-width="7"/><polygon points="-1131.43,-421.07 -925.71,-506.79 -205.71,-206.79 -411.43,-121.07" fill="url(#oak)" stroke="#775738" stroke-width="7"/><polygon points="-1337.14,-148.36 -1131.43,-234.07 -1131.43,-272.32 -1337.14,-186.61" fill="#79573c" stroke="#674b36" stroke-width="7"/><polygon points="-1131.43,-234.07 -411.43,65.93 -411.43,27.68 -1131.43,-272.32" fill="#79573c" stroke="#674b36" stroke-width="7"/><polygon points="-411.43,65.93 -617.14,151.64 -617.14,113.39 -411.43,27.68" fill="#79573c" stroke="#674b36" stroke-width="7"/><polygon points="-617.14,151.64 -1337.14,-148.36 -1337.14,-186.61 -617.14,113.39" fill="#79573c" stroke="#674b36" stroke-width="7"/><polygon points="-1337.14,-186.61 -1131.43,-272.32 -411.43,27.68 -617.14,113.39" fill="url(#oak)" stroke="#775738" stroke-width="7"/><polygon points="-1542.86,86.11 -1337.14,0.39 -1337.14,-37.86 -1542.86,47.86" fill="#79573c" stroke="#674b36" stroke-width="7"/><polygon points="-1337.14,0.39 -617.14,300.39 -617.14,262.14 -1337.14,-37.86" fill="#79573c" stroke="#674b36" stroke-width="7"/><polygon points="-617.14,300.39 -822.86,386.11 -822.86,347.86 -617.14,262.14" fill="#79573c" stroke="#674b36" stroke-width="7"/><polygon points="-822.86,386.11 -1542.86,86.11 -1542.86,47.86 -822.86,347.86" fill="#79573c" stroke="#674b36" stroke-width="7"/><polygon points="-1542.86,47.86 -1337.14,-37.86 -617.14,262.14 -822.86,347.86" fill="url(#oak)" stroke="#775738" stroke-width="7"/><polygon points="-1748.57,320.57 -1542.86,234.86 -1542.86,196.61 -1748.57,282.32" fill="#79573c" stroke="#674b36" stroke-width="7"/><polygon points="-1542.86,234.86 -822.86,534.86 -822.86,496.61 -1542.86,196.61" fill="#79573c" stroke="#674b36" stroke-width="7"/><polygon points="-822.86,534.86 -1028.57,620.57 -1028.57,582.32 -822.86,496.61" fill="#79573c" stroke="#674b36" stroke-width="7"/><polygon points="-1028.57,620.57 -1748.57,320.57 -1748.57,282.32 -1028.57,582.32" fill="#79573c" stroke="#674b36" stroke-width="7"/><polygon points="-1748.57,282.32 -1542.86,196.61 -822.86,496.61 -1028.57,582.32" fill="url(#oak)" stroke="#775738" stroke-width="7"/><polygon points="-36.00,-565.50 144.00,-640.50 144.00,-678.75 -36.00,-603.75" fill="#79573c" stroke="#674b36" stroke-width="7"/><polygon points="144.00,-640.50 864.00,-340.50 864.00,-378.75 144.00,-678.75" fill="#79573c" stroke="#674b36" stroke-width="7"/><polygon points="864.00,-340.50 684.00,-265.50 684.00,-303.75 864.00,-378.75" fill="#79573c" stroke="#674b36" stroke-width="7"/><polygon points="684.00,-265.50 -36.00,-565.50 -36.00,-603.75 684.00,-303.75" fill="#79573c" stroke="#674b36" stroke-width="7"/><polygon points="-36.00,-603.75 144.00,-678.75 864.00,-378.75 684.00,-303.75" fill="url(#oak)" stroke="#775738" stroke-width="7"/><polygon points="-1954.29,555.04 -1748.57,469.32 -1748.57,431.07 -1954.29,516.79" fill="#79573c" stroke="#674b36" stroke-width="7"/><polygon points="-1748.57,469.32 -1028.57,769.32 -1028.57,731.07 -1748.57,431.07" fill="#79573c" stroke="#674b36" stroke-width="7"/><polygon points="-1028.57,769.32 -1234.29,855.04 -1234.29,816.79 -1028.57,731.07" fill="#79573c" stroke="#674b36" stroke-width="7"/><polygon points="-1234.29,855.04 -1954.29,555.04 -1954.29,516.79 -1234.29,816.79" fill="#79573c" stroke="#674b36" stroke-width="7"/><polygon points="-1954.29,516.79 -1748.57,431.07 -1028.57,731.07 -1234.29,816.79" fill="url(#oak)" stroke="#775738" stroke-width="7"/><polygon points="-216.00,-639.25 -36.00,-714.25 -36.00,-752.50 -216.00,-677.50" fill="#79573c" stroke="#674b36" stroke-width="7"/><polygon points="-36.00,-714.25 684.00,-414.25 684.00,-452.50 -36.00,-752.50" fill="#79573c" stroke="#674b36" stroke-width="7"/><polygon points="684.00,-414.25 504.00,-339.25 504.00,-377.50 684.00,-452.50" fill="#79573c" stroke="#674b36" stroke-width="7"/><polygon points="504.00,-339.25 -216.00,-639.25 -216.00,-677.50 504.00,-377.50" fill="#79573c" stroke="#674b36" stroke-width="7"/><polygon points="-216.00,-677.50 -36.00,-752.50 684.00,-452.50 504.00,-377.50" fill="url(#oak)" stroke="#775738" stroke-width="7"/><polygon points="-396.00,-713.00 -216.00,-788.00 -216.00,-826.25 -396.00,-751.25" fill="#79573c" stroke="#674b36" stroke-width="7"/><polygon points="-216.00,-788.00 504.00,-488.00 504.00,-526.25 -216.00,-826.25" fill="#79573c" stroke="#674b36" stroke-width="7"/><polygon points="504.00,-488.00 324.00,-413.00 324.00,-451.25 504.00,-526.25" fill="#79573c" stroke="#674b36" stroke-width="7"/><polygon points="324.00,-413.00 -396.00,-713.00 -396.00,-751.25 324.00,-451.25" fill="#79573c" stroke="#674b36" stroke-width="7"/><polygon points="-396.00,-751.25 -216.00,-826.25 504.00,-526.25 324.00,-451.25" fill="url(#oak)" stroke="#775738" stroke-width="7"/><polygon points="-2160.00,789.50 -1954.29,703.79 -1954.29,665.54 -2160.00,751.25" fill="#79573c" stroke="#674b36" stroke-width="7"/><polygon points="-1954.29,703.79 -1234.29,1003.79 -1234.29,965.54 -1954.29,665.54" fill="#79573c" stroke="#674b36" stroke-width="7"/><polygon points="-1234.29,1003.79 -1440.00,1089.50 -1440.00,1051.25 -1234.29,965.54" fill="#79573c" stroke="#674b36" stroke-width="7"/><polygon points="-1440.00,1089.50 -2160.00,789.50 -2160.00,751.25 -1440.00,1051.25" fill="#79573c" stroke="#674b36" stroke-width="7"/><polygon points="-2160.00,751.25 -1954.29,665.54 -1234.29,965.54 -1440.00,1051.25" fill="url(#oak)" stroke="#775738" stroke-width="7"/><polygon points="-576.00,-786.75 -396.00,-861.75 -396.00,-900.00 -576.00,-825.00" fill="#79573c" stroke="#674b36" stroke-width="7"/><polygon points="-396.00,-861.75 324.00,-561.75 324.00,-600.00 -396.00,-900.00" fill="#79573c" stroke="#674b36" stroke-width="7"/><polygon points="324.00,-561.75 144.00,-486.75 144.00,-525.00 324.00,-600.00" fill="#79573c" stroke="#674b36" stroke-width="7"/><polygon points="144.00,-486.75 -576.00,-786.75 -576.00,-825.00 144.00,-525.00" fill="#79573c" stroke="#674b36" stroke-width="7"/><polygon points="-576.00,-825.00 -396.00,-900.00 324.00,-600.00 144.00,-525.00" fill="url(#oak)" stroke="#775738" stroke-width="7"/><polygon points="-756.00,-860.50 -576.00,-935.50 -576.00,-973.75 -756.00,-898.75" fill="#79573c" stroke="#674b36" stroke-width="7"/><polygon points="-576.00,-935.50 144.00,-635.50 144.00,-673.75 -576.00,-973.75" fill="#79573c" stroke="#674b36" stroke-width="7"/><polygon points="144.00,-635.50 -36.00,-560.50 -36.00,-598.75 144.00,-673.75" fill="#79573c" stroke="#674b36" stroke-width="7"/><polygon points="-36.00,-560.50 -756.00,-860.50 -756.00,-898.75 -36.00,-598.75" fill="#79573c" stroke="#674b36" stroke-width="7"/><polygon points="-756.00,-898.75 -576.00,-973.75 144.00,-673.75 -36.00,-598.75" fill="url(#oak)" stroke="#775738" stroke-width="7"/><polygon points="-936.00,-934.25 -756.00,-1009.25 -756.00,-1047.50 -936.00,-972.50" fill="#79573c" stroke="#674b36" stroke-width="7"/><polygon points="-756.00,-1009.25 -36.00,-709.25 -36.00,-747.50 -756.00,-1047.50" fill="#79573c" stroke="#674b36" stroke-width="7"/><polygon points="-36.00,-709.25 -216.00,-634.25 -216.00,-672.50 -36.00,-747.50" fill="#79573c" stroke="#674b36" stroke-width="7"/><polygon points="-216.00,-634.25 -936.00,-934.25 -936.00,-972.50 -216.00,-672.50" fill="#79573c" stroke="#674b36" stroke-width="7"/><polygon points="-936.00,-972.50 -756.00,-1047.50 -36.00,-747.50 -216.00,-672.50" fill="url(#oak)" stroke="#775738" stroke-width="7"/><polygon points="-1116.00,-1008.00 -936.00,-1083.00 -936.00,-1121.25 -1116.00,-1046.25" fill="#79573c" stroke="#674b36" stroke-width="7"/><polygon points="-936.00,-1083.00 -216.00,-783.00 -216.00,-821.25 -936.00,-1121.25" fill="#79573c" stroke="#674b36" stroke-width="7"/><polygon points="-216.00,-783.00 -396.00,-708.00 -396.00,-746.25 -216.00,-821.25" fill="#79573c" stroke="#674b36" stroke-width="7"/><polygon points="-396.00,-708.00 -1116.00,-1008.00 -1116.00,-1046.25 -396.00,-746.25" fill="#79573c" stroke="#674b36" stroke-width="7"/><polygon points="-1116.00,-1046.25 -936.00,-1121.25 -216.00,-821.25 -396.00,-746.25" fill="url(#oak)" stroke="#775738" stroke-width="7"/><polygon points="-1296.00,-1081.75 -1116.00,-1156.75 -1116.00,-1195.00 -1296.00,-1120.00" fill="#79573c" stroke="#674b36" stroke-width="7"/><polygon points="-1116.00,-1156.75 -396.00,-856.75 -396.00,-895.00 -1116.00,-1195.00" fill="#79573c" stroke="#674b36" stroke-width="7"/><polygon points="-396.00,-856.75 -576.00,-781.75 -576.00,-820.00 -396.00,-895.00" fill="#79573c" stroke="#674b36" stroke-width="7"/><polygon points="-576.00,-781.75 -1296.00,-1081.75 -1296.00,-1120.00 -576.00,-820.00" fill="#79573c" stroke="#674b36" stroke-width="7"/><polygon points="-1296.00,-1120.00 -1116.00,-1195.00 -396.00,-895.00 -576.00,-820.00" fill="url(#oak)" stroke="#775738" stroke-width="7"/><polyline points="-2128.32,11.75 -1938.45,-67.36" stroke="#343d40" stroke-width="30" fill="none"/><polygon points="-2128.32,691.75 -1938.45,612.64 -1938.45,-67.36 -2128.32,11.75" fill="#b7dbe0" fill-opacity=".3" stroke="#8daeb4" stroke-width="8"/><polyline points="-2128.32,751.25 -2128.32,11.75" stroke="#535a5a" stroke-width="18"/><polyline points="-1234.29,226.04 -1424.16,305.15" stroke="#343d40" stroke-width="30" fill="none"/><polygon points="-1234.29,906.04 -1424.16,985.15 -1424.16,305.15 -1234.29,226.04" fill="#b7dbe0" fill-opacity=".3" stroke="#8daeb4" stroke-width="8"/><polyline points="-1234.29,965.54 -1234.29,226.04" stroke="#535a5a" stroke-width="18"/><polyline points="-1938.45,-216.11 -1732.73,-301.83" stroke="#343d40" stroke-width="30" fill="none"/><polygon points="-1938.45,463.89 -1732.73,378.17 -1732.73,-301.83 -1938.45,-216.11" fill="#b7dbe0" fill-opacity=".3" stroke="#8daeb4" stroke-width="8"/><polyline points="-1938.45,523.39 -1938.45,-216.11" stroke="#535a5a" stroke-width="18"/><polyline points="-1028.57,-8.43 -1234.29,77.29" stroke="#343d40" stroke-width="30" fill="none"/><polygon points="-1028.57,671.57 -1234.29,757.29 -1234.29,77.29 -1028.57,-8.43" fill="#b7dbe0" fill-opacity=".3" stroke="#8daeb4" stroke-width="8"/><polyline points="-1028.57,731.07 -1028.57,-8.43" stroke="#535a5a" stroke-width="18"/><polyline points="-1732.73,-450.58 -1527.02,-536.29" stroke="#343d40" stroke-width="30" fill="none"/><polygon points="-1732.73,229.42 -1527.02,143.71 -1527.02,-536.29 -1732.73,-450.58" fill="#b7dbe0" fill-opacity=".3" stroke="#8daeb4" stroke-width="8"/><polyline points="-1732.73,288.92 -1732.73,-450.58" stroke="#535a5a" stroke-width="18"/><polyline points="-822.86,-242.89 -1028.57,-157.18" stroke="#343d40" stroke-width="30" fill="none"/><polygon points="-822.86,437.11 -1028.57,522.82 -1028.57,-157.18 -822.86,-242.89" fill="#b7dbe0" fill-opacity=".3" stroke="#8daeb4" stroke-width="8"/><polyline points="-822.86,496.61 -822.86,-242.89" stroke="#535a5a" stroke-width="18"/><polyline points="-1527.02,-685.04 -1321.30,-770.76" stroke="#343d40" stroke-width="30" fill="none"/><polygon points="-1527.02,-5.04 -1321.30,-90.76 -1321.30,-770.76 -1527.02,-685.04" fill="#b7dbe0" fill-opacity=".3" stroke="#8daeb4" stroke-width="8"/><polyline points="-1527.02,54.46 -1527.02,-685.04" stroke="#535a5a" stroke-width="18"/><polyline points="-617.14,-477.36 -822.86,-391.64" stroke="#343d40" stroke-width="30" fill="none"/><polygon points="-617.14,202.64 -822.86,288.36 -822.86,-391.64 -617.14,-477.36" fill="#b7dbe0" fill-opacity=".3" stroke="#8daeb4" stroke-width="8"/><polyline points="-617.14,262.14 -617.14,-477.36" stroke="#535a5a" stroke-width="18"/><polyline points="-1321.30,-919.51 -1115.59,-1005.22" stroke="#343d40" stroke-width="30" fill="none"/><polygon points="-1321.30,-239.51 -1115.59,-325.22 -1115.59,-1005.22 -1321.30,-919.51" fill="#b7dbe0" fill-opacity=".3" stroke="#8daeb4" stroke-width="8"/><polyline points="-1321.30,-180.01 -1321.30,-919.51" stroke="#535a5a" stroke-width="18"/><polyline points="-411.43,-711.82 -617.14,-626.11" stroke="#343d40" stroke-width="30" fill="none"/><polygon points="-411.43,-31.82 -617.14,53.89 -617.14,-626.11 -411.43,-711.82" fill="#b7dbe0" fill-opacity=".3" stroke="#8daeb4" stroke-width="8"/><polyline points="-411.43,27.68 -411.43,-711.82" stroke="#535a5a" stroke-width="18"/><polyline points="-1115.59,-1153.97 -909.87,-1239.69" stroke="#343d40" stroke-width="30" fill="none"/><polygon points="-1115.59,-473.97 -909.87,-559.69 -909.87,-1239.69 -1115.59,-1153.97" fill="#b7dbe0" fill-opacity=".3" stroke="#8daeb4" stroke-width="8"/><polyline points="-1115.59,-414.47 -1115.59,-1153.97" stroke="#535a5a" stroke-width="18"/><polyline points="-205.71,-946.29 -411.43,-860.57" stroke="#343d40" stroke-width="30" fill="none"/><polygon points="-205.71,-266.29 -411.43,-180.57 -411.43,-860.57 -205.71,-946.29" fill="#b7dbe0" fill-opacity=".3" stroke="#8daeb4" stroke-width="8"/><polyline points="-205.71,-206.79 -205.71,-946.29" stroke="#535a5a" stroke-width="18"/><polyline points="-909.87,-1388.44 -704.16,-1474.15" stroke="#343d40" stroke-width="30" fill="none"/><polygon points="-909.87,-708.44 -704.16,-794.15 -704.16,-1474.15 -909.87,-1388.44" fill="#b7dbe0" fill-opacity=".3" stroke="#8daeb4" stroke-width="8"/><polyline points="-909.87,-648.94 -909.87,-1388.44" stroke="#535a5a" stroke-width="18"/><polyline points="0.00,-1180.75 -205.71,-1095.04" stroke="#343d40" stroke-width="30" fill="none"/><polygon points="0.00,-500.75 -205.71,-415.04 -205.71,-1095.04 0.00,-1180.75" fill="#b7dbe0" fill-opacity=".3" stroke="#8daeb4" stroke-width="8"/><polyline points="0.00,-441.25 0.00,-1180.75" stroke="#535a5a" stroke-width="18"/><polyline points="-704.16,-1622.90 0.00,-1916.30" stroke="#343d40" stroke-width="30" fill="none"/><polygon points="-704.16,-942.90 0.00,-1236.30 0.00,-1916.30 -704.16,-1622.90" fill="#b7dbe0" fill-opacity=".3" stroke="#8daeb4" stroke-width="8"/><polyline points="-704.16,-883.40 -704.16,-1622.90" stroke="#535a5a" stroke-width="18"/><polyline points="0.00,-1916.30 1552.32,-1269.50" stroke="#343d40" stroke-width="30" fill="none"/><polygon points="0.00,-1236.30 1552.32,-589.50 1552.32,-1269.50 0.00,-1916.30" fill="#b7dbe0" fill-opacity=".3" stroke="#8daeb4" stroke-width="8"/><polyline points="0.00,-1176.80 0.00,-1916.30" stroke="#535a5a" stroke-width="18"/><polyline points="1552.32,-1269.50 848.16,-976.10" stroke="#343d40" stroke-width="30" fill="none"/><polygon points="1552.32,-589.50 848.16,-296.10 848.16,-976.10 1552.32,-1269.50" fill="#b7dbe0" fill-opacity=".3" stroke="#8daeb4" stroke-width="8"/><polyline points="1552.32,-530.00 1552.32,-1269.50" stroke="#535a5a" stroke-width="18"/><polyline points="848.16,-976.10 -704.16,-1622.90" stroke="#343d40" stroke-width="30" fill="none"/><polygon points="848.16,-296.10 -704.16,-942.90 -704.16,-1622.90 848.16,-976.10" fill="#b7dbe0" fill-opacity=".3" stroke="#8daeb4" stroke-width="8"/><polyline points="848.16,-236.60 848.16,-976.10" stroke="#535a5a" stroke-width="18"/><polyline points="-36.00,-1343.25 144.00,-1418.25" stroke="#343d40" stroke-width="30" fill="none"/><polygon points="-36.00,-663.25 144.00,-738.25 144.00,-1418.25 -36.00,-1343.25" fill="#b7dbe0" fill-opacity=".3" stroke="#8daeb4" stroke-width="8"/><polyline points="-36.00,-603.75 -36.00,-1343.25" stroke="#535a5a" stroke-width="18"/><polyline points="848.16,-1124.85 668.16,-1049.85" stroke="#343d40" stroke-width="30" fill="none"/><polygon points="848.16,-444.85 668.16,-369.85 668.16,-1049.85 848.16,-1124.85" fill="#b7dbe0" fill-opacity=".3" stroke="#8daeb4" stroke-width="8"/><polyline points="848.16,-385.35 848.16,-1124.85" stroke="#535a5a" stroke-width="18"/><polyline points="-216.00,-1417.00 -36.00,-1492.00" stroke="#343d40" stroke-width="30" fill="none"/><polygon points="-216.00,-737.00 -36.00,-812.00 -36.00,-1492.00 -216.00,-1417.00" fill="#b7dbe0" fill-opacity=".3" stroke="#8daeb4" stroke-width="8"/><polyline points="-216.00,-677.50 -216.00,-1417.00" stroke="#535a5a" stroke-width="18"/><polyline points="668.16,-1198.60 488.16,-1123.60" stroke="#343d40" stroke-width="30" fill="none"/><polygon points="668.16,-518.60 488.16,-443.60 488.16,-1123.60 668.16,-1198.60" fill="#b7dbe0" fill-opacity=".3" stroke="#8daeb4" stroke-width="8"/><polyline points="668.16,-459.10 668.16,-1198.60" stroke="#535a5a" stroke-width="18"/><polyline points="-396.00,-1490.75 -216.00,-1565.75" stroke="#343d40" stroke-width="30" fill="none"/><polygon points="-396.00,-810.75 -216.00,-885.75 -216.00,-1565.75 -396.00,-1490.75" fill="#b7dbe0" fill-opacity=".3" stroke="#8daeb4" stroke-width="8"/><polyline points="-396.00,-751.25 -396.00,-1490.75" stroke="#535a5a" stroke-width="18"/><polyline points="488.16,-1272.35 308.16,-1197.35" stroke="#343d40" stroke-width="30" fill="none"/><polygon points="488.16,-592.35 308.16,-517.35 308.16,-1197.35 488.16,-1272.35" fill="#b7dbe0" fill-opacity=".3" stroke="#8daeb4" stroke-width="8"/><polyline points="488.16,-532.85 488.16,-1272.35" stroke="#535a5a" stroke-width="18"/><polyline points="-576.00,-1564.50 -396.00,-1639.50" stroke="#343d40" stroke-width="30" fill="none"/><polygon points="-576.00,-884.50 -396.00,-959.50 -396.00,-1639.50 -576.00,-1564.50" fill="#b7dbe0" fill-opacity=".3" stroke="#8daeb4" stroke-width="8"/><polyline points="-576.00,-825.00 -576.00,-1564.50" stroke="#535a5a" stroke-width="18"/><polyline points="308.16,-1346.10 128.16,-1271.10" stroke="#343d40" stroke-width="30" fill="none"/><polygon points="308.16,-666.10 128.16,-591.10 128.16,-1271.10 308.16,-1346.10" fill="#b7dbe0" fill-opacity=".3" stroke="#8daeb4" stroke-width="8"/><polyline points="308.16,-606.60 308.16,-1346.10" stroke="#535a5a" stroke-width="18"/><polyline points="-756.00,-1638.25 -576.00,-1713.25" stroke="#343d40" stroke-width="30" fill="none"/><polygon points="-756.00,-958.25 -576.00,-1033.25 -576.00,-1713.25 -756.00,-1638.25" fill="#b7dbe0" fill-opacity=".3" stroke="#8daeb4" stroke-width="8"/><polyline points="-756.00,-898.75 -756.00,-1638.25" stroke="#535a5a" stroke-width="18"/><polyline points="128.16,-1419.85 -51.84,-1344.85" stroke="#343d40" stroke-width="30" fill="none"/><polygon points="128.16,-739.85 -51.84,-664.85 -51.84,-1344.85 128.16,-1419.85" fill="#b7dbe0" fill-opacity=".3" stroke="#8daeb4" stroke-width="8"/><polyline points="128.16,-680.35 128.16,-1419.85" stroke="#535a5a" stroke-width="18"/><polyline points="-936.00,-1712.00 -756.00,-1787.00" stroke="#343d40" stroke-width="30" fill="none"/><polygon points="-936.00,-1032.00 -756.00,-1107.00 -756.00,-1787.00 -936.00,-1712.00" fill="#b7dbe0" fill-opacity=".3" stroke="#8daeb4" stroke-width="8"/><polyline points="-936.00,-972.50 -936.00,-1712.00" stroke="#535a5a" stroke-width="18"/><polyline points="-51.84,-1493.60 -231.84,-1418.60" stroke="#343d40" stroke-width="30" fill="none"/><polygon points="-51.84,-813.60 -231.84,-738.60 -231.84,-1418.60 -51.84,-1493.60" fill="#b7dbe0" fill-opacity=".3" stroke="#8daeb4" stroke-width="8"/><polyline points="-51.84,-754.10 -51.84,-1493.60" stroke="#535a5a" stroke-width="18"/><polyline points="-1116.00,-1785.75 -936.00,-1860.75" stroke="#343d40" stroke-width="30" fill="none"/><polygon points="-1116.00,-1105.75 -936.00,-1180.75 -936.00,-1860.75 -1116.00,-1785.75" fill="#b7dbe0" fill-opacity=".3" stroke="#8daeb4" stroke-width="8"/><polyline points="-1116.00,-1046.25 -1116.00,-1785.75" stroke="#535a5a" stroke-width="18"/><polyline points="-231.84,-1567.35 -411.84,-1492.35" stroke="#343d40" stroke-width="30" fill="none"/><polygon points="-231.84,-887.35 -411.84,-812.35 -411.84,-1492.35 -231.84,-1567.35" fill="#b7dbe0" fill-opacity=".3" stroke="#8daeb4" stroke-width="8"/><polyline points="-231.84,-827.85 -231.84,-1567.35" stroke="#535a5a" stroke-width="18"/><polyline points="-1280.16,-1866.10 -1116.00,-1934.50" stroke="#343d40" stroke-width="30" fill="none"/><polygon points="-1280.16,-1186.10 -1116.00,-1254.50 -1116.00,-1934.50 -1280.16,-1866.10" fill="#b7dbe0" fill-opacity=".3" stroke="#8daeb4" stroke-width="8"/><polyline points="-1280.16,-1126.60 -1280.16,-1866.10" stroke="#535a5a" stroke-width="18"/><polyline points="-411.84,-1641.10 -576.00,-1572.70" stroke="#343d40" stroke-width="30" fill="none"/><polygon points="-411.84,-961.10 -576.00,-892.70 -576.00,-1572.70 -411.84,-1641.10" fill="#b7dbe0" fill-opacity=".3" stroke="#8daeb4" stroke-width="8"/><polyline points="-411.84,-901.60 -411.84,-1641.10" stroke="#535a5a" stroke-width="18"/></svg>