<svg xmlns="http://www.w3.org/2000/svg" viewBox="-3606.0 -3295.0 4620.0 5245.0"><defs><pattern id="oak" width="130" height="55" patternUnits="userSpaceOnUse"><rect width="130" height="55" fill="#bd9364"/><path d="M0 12 Q60 2 130 17 M0 36 Q60 44 130 32" stroke="#99734e" stroke-width="3" fill="none" opacity=".45"/></pattern></defs><polygon points="-216.00,-2251.75 0.00,-2341.75 0.00,-2380.00 -216.00,-2290.00" fill="#79573c" stroke="#674b36" stroke-width="7"/><polygon points="0.00,-2341.75 864.00,-1981.75 864.00,-2020.00 0.00,-2380.00" fill="#79573c" stroke="#674b36" stroke-width="7"/><polygon points="864.00,-1981.75 648.00,-1891.75 648.00,-1930.00 864.00,-2020.00" fill="#79573c" stroke="#674b36" stroke-width="7"/><polygon points="648.00,-1891.75 -216.00,-2251.75 -216.00,-2290.00 648.00,-1930.00" fill="#79573c" stroke="#674b36" stroke-width="7"/><polygon points="-216.00,-2290.00 0.00,-2380.00 864.00,-2020.00 648.00,-1930.00" fill="url(#oak)" stroke="#775738" stroke-width="7"/><polygon points="-432.00,-2013.00 -216.00,-2103.00 -216.00,-2141.25 -432.00,-2051.25" fill="#79573c" stroke="#674b36" stroke-width="7"/><polygon points="-216.00,-2103.00 648.00,-1743.00 648.00,-1781.25 -216.00,-2141.25" fill="#79573c" stroke="#674b36" stroke-width="7"/><polygon points="648.00,-1743.00 432.00,-1653.00 432.00,-1691.25 648.00,-1781.25" fill="#79573c" stroke="#674b36" stroke-width="7"/><polygon points="432.00,-1653.00 -432.00,-2013.00 -432.00,-2051.25 432.00,-1691.25" fill="#79573c" stroke="#674b36" stroke-width="7"/><polygon points="-432.00,-2051.25 -216.00,-2141.25 648.00,-1781.25 432.00,-1691.25" fill="url(#oak)" stroke="#775738" stroke-width="7"/><polygon points="-648.00,-1774.25 -432.00,-1864.25 -432.00,-1902.50 -648.00,-1812.50" fill="#79573c" stroke="#674b36" stroke-width="7"/><polygon points="-432.00,-1864.25 432.00,-1504.25 432.00,-1542.50 -432.00,-1902.50" fill="#79573c" stroke="#674b36" stroke-width="7"/><polygon points="432.00,-1504.25 216.00,-1414.25 216.00,-1452.50 432.00,-1542.50" fill="#79573c" stroke="#674b36" stroke-width="7"/><polygon points="216.00,-1414.25 -648.00,-1774.25 -648.00,-1812.50 216.00,-1452.50" fill="#79573c" stroke="#674b36" stroke-width="7"/><polygon points="-648.00,-1812.50 -432.00,-1902.50 432.00,-1542.50 216.00,-1452.50" fill="url(#oak)" stroke="#775738" stroke-width="7"/><polygon points="-864.00,-1535.50 -648.00,-1625.50 -648.00,-1663.75 -864.00,-1573.75" fill="#79573c" stroke="#674b36" stroke-width="7"/><polygon points="-648.00,-1625.50 216.00,-1265.50 216.00,-1303.75 -648.00,-1663.75" fill="#79573c" stroke="#674b36" stroke-width="7"/><polygon points="216.00,-1265.50 0.00,-1175.50 0.00,-1213.75 216.00,-1303.75" fill="#79573c" stroke="#674b36" stroke-width="7"/><polygon points="0.00,-1175.50 -864.00,-1535.50 -864.00,-1573.75 0.00,-1213.75" fill="#79573c" stroke="#674b36" stroke-width="7"/><polygon points="-864.00,-1573.75 -648.00,-1663.75 216.00,-1303.75 0.00,-1213.75" fill="url(#oak)" stroke="#775738" stroke-width="7"/><polygon points="-1080.00,-1296.75 -864.00,-1386.75 -864.00,-1425.00 -1080.00,-1335.00" fill="#79573c" stroke="#674b36" stroke-width="7"/><polygon points="-864.00,-1386.75 0.00,-1026.75 0.00,-1065.00 -864.00,-1425.00" fill="#79573c" stroke="#674b36" stroke-width="7"/><polygon points="0.00,-1026.75 -216.00,-936.75 -216.00,-975.00 0.00,-1065.00" fill="#79573c" stroke="#674b36" stroke-width="7"/><polygon points="-216.00,-936.75 -1080.00,-1296.75 -1080.00,-1335.00 -216.00,-975.00" fill="#79573c" stroke="#674b36" stroke-width="7"/><polygon points="-1080.00,-1335.00 -864.00,-1425.00 0.00,-1065.00 -216.00,-975.00" fill="url(#oak)" stroke="#775738" stroke-width="7"/><polygon points="-1296.00,-1058.00 -1080.00,-1148.00 -1080.00,-1186.25 -1296.00,-1096.25" fill="#79573c" stroke="#674b36" stroke-width="7"/><polygon points="-1080.00,-1148.00 -216.00,-788.00 -216.00,-826.25 -1080.00,-1186.25" fill="#79573c" stroke="#674b36" stroke-width="7"/><polygon points="-216.00,-788.00 -432.00,-698.00 -432.00,-736.25 -216.00,-826.25" fill="#79573c" stroke="#674b36" stroke-width="7"/><polygon points="-432.00,-698.00 -1296.00,-1058.00 -1296.00,-1096.25 -432.00,-736.25" fill="#79573c" stroke="#674b36" stroke-width="7"/><polygon points="-1296.00,-1096.25 -1080.00,-1186.25 -216.00,-826.25 -432.00,-736.25" fill="url(#oak)" stroke="#775738" stroke-width="7"/><polygon points="-1512.00,-819.25 -1296.00,-909.25 -1296.00,-947.50 -1512.00,-857.50" fill="#79573c" stroke="#674b36" stroke-width="7"/><polygon points="-1296.00,-909.25 -432.00,-549.25 -432.00,-587.50 -1296.00,-947.50" fill="#79573c" stroke="#674b36" stroke-width="7"/><polygon points="-432.00,-549.25 -648.00,-459.25 -648.00,-497.50 -432.00,-587.50" fill="#79573c" stroke="#674b36" stroke-width="7"/><polygon points="-648.00,-459.25 -1512.00,-819.25 -1512.00,-857.50 -648.00,-497.50" fill="#79573c" stroke="#674b36" stroke-width="7"/><polygon points="-1512.00,-857.50 -1296.00,-947.50 -432.00,-587.50 -648.00,-497.50" fill="url(#oak)" stroke="#775738" stroke-width="7"/><polygon points="-1728.00,-580.50 -1512.00,-670.50 -1512.00,-708.75 -1728.00,-618.75" fill="#79573c" stroke="#674b36" stroke-width="7"/><polygon points="-1512.00,-670.50 -648.00,-310.50 -648.00,-348.75 -1512.00,-708.75" fill="#79573c" stroke="#674b36" stroke-width="7"/><polygon points="-648.00,-310.50 -864.00,-220.50 -864.00,-258.75 -648.00,-348.75" fill="#79573c" stroke="#674b36" stroke-width="7"/><polygon points="-864.00,-220.50 -1728.00,-580.50 -1728.00,-618.75 -864.00,-258.75" fill="#79573c" stroke="#674b36" stroke-width="7"/><polygon points="-1728.00,-618.75 -1512.00,-708.75 -648.00,-348.75 -864.00,-258.75" fill="url(#oak)" stroke="#775738" stroke-width="7"/><polygon points="-1944.00,-341.75 -1728.00,-431.75 -1728.00,-470.00 -1944.00,-380.00" fill="#79573c" stroke="#674b36" stroke-width="7"/><polygon points="-1728.00,-431.75 -864.00,-71.75 -864.00,-110.00 -1728.00,-470.00" fill="#79573c" stroke="#674b36" stroke-width="7"/><polygon points="-864.00,-71.75 -1080.00,18.25 -1080.00,-20.00 -864.00,-110.00" fill="#79573c" stroke="#674b36" stroke-width="7"/><polygon points="-1080.00,18.25 -1944.00,-341.75 -1944.00,-380.00 -1080.00,-20.00" fill="#79573c" stroke="#674b36" stroke-width="7"/><polygon points="-1944.00,-380.00 -1728.00,-470.00 -864.00,-110.00 -1080.00,-20.00" fill="url(#oak)" stroke="#775738" stroke-width="7"/><polygon points="-2160.00,-103.00 -1944.00,-193.00 -1944.00,-231.25 -2160.00,-141.25" fill="#79573c" stroke="#674b36" stroke-width="7"/><polygon points="-1944.00,-193.00 -1080.00,167.00 -1080.00,128.75 -1944.00,-231.25" fill="#79573c" stroke="#674b36" stroke-width="7"/><polygon points="-1080.00,167.00 -1296.00,257.00 -1296.00,218.75 -1080.00,128.75" fill="#79573c" stroke="#674b36" stroke-width="7"/><polygon points="-1296.00,257.00 -2160.00,-103.00 -2160.00,-141.25 -1296.00,218.75" fill="#79573c" stroke="#674b36" stroke-width="7"/><polygon points="-2160.00,-141.25 -1944.00,-231.25 -1080.00,128.75 -1296.00,218.75" fill="url(#oak)" stroke="#775738" stroke-width="7"/><polygon points="-2376.00,135.75 -2160.00,45.75 -2160.00,7.50 -2376.00,97.50" fill="#79573c" stroke="#674b36" stroke-width="7"/><polygon points="-2160.00,45.75 -1296.00,405.75 -1296.00,367.50 -2160.00,7.50" fill="#79573c" stroke="#674b36" stroke-width="7"/><polygon points="-1296.00,405.75 -1512.00,495.75 -1512.00,457.50 -1296.00,367.50" fill="#79573c" stroke="#674b36" stroke-width="7"/><polygon points="-1512.00,495.75 -2376.00,135.75 -2376.00,97.50 -1512.00,457.50" fill="#79573c" stroke="#674b36" stroke-width="7"/><polygon points="-2376.00,97.50 -2160.00,7.50 -1296.00,367.50 -1512.00,457.50" fill="url(#oak)" stroke="#775738" stroke-width="7"/><polygon points="-2592.00,374.50 -2376.00,284.50 -2376.00,246.25 -2592.00,336.25" fill="#79573c" stroke="#674b36" stroke-width="7"/><polygon points="-2376.00,284.50 -1512.00,644.50 -1512.00,606.25 -2376.00,246.25" fill="#79573c" stroke="#674b36" stroke-width="7"/><polygon points="-1512.00,644.50 -1728.00,734.50 -1728.00,696.25 -1512.00,606.25" fill="#79573c" stroke="#674b36" stroke-width="7"/><polygon points="-1728.00,734.50 -2592.00,374.50 -2592.00,336.25 -1728.00,696.25" fill="#79573c" stroke="#674b36" stroke-width="7"/><polygon points="-2592.00,336.25 -2376.00,246.25 -1512.00,606.25 -1728.00,696.25" fill="url(#oak)" stroke="#775738" stroke-width="7"/><polygon points="-2808.00,613.25 -2592.00,523.25 -2592.00,485.00 -2808.00,575.00" fill="#79573c" stroke="#674b36" stroke-width="7"/><polygon points="-2592.00,523.25 -1728.00,883.25 -1728.00,845.00 -2592.00,485.00" fill="#79573c" stroke="#674b36" stroke-width="7"/><polygon points="-1728.00,883.25 -1944.00,973.25 -1944.00,935.00 -1728.00,845.00" fill="#79573c" stroke="#674b36" stroke-width="7"/><polygon points="-1944.00,973.25 -2808.00,613.25 -2808.00,575.00 -1944.00,935.00" fill="#79573c" stroke="#674b36" stroke-width="7"/><polygon points="-2808.00,575.00 -2592.00,485.00 -1728.00,845.00 -1944.00,935.00" fill="url(#oak)" stroke="#775738" stroke-width="7"/><polygon points="-3024.00,852.00 -2808.00,762.00 -2808.00,723.75 -3024.00,813.75" fill="#79573c" stroke="#674b36" stroke-width="7"/><polygon points="-2808.00,762.00 -1944.00,1122.00 -1944.00,1083.75 -2808.00,723.75" fill="#79573c" stroke="#674b36" stroke-width="7"/><polygon points="-1944.00,1122.00 -2160.00,1212.00 -2160.00,1173.75 -1944.00,1083.75" fill="#79573c" stroke="#674b36" stroke-width="7"/><polygon points="-2160.00,1212.00 -3024.00,852.00 -3024.00,813.75 -2160.00,1173.75" fill="#79573c" stroke="#674b36" stroke-width="7"/><polygon points="-3024.00,813.75 -2808.00,723.75 -1944.00,1083.75 -2160.00,1173.75" fill="url(#oak)" stroke="#775738" stroke-width="7"/><polygon points="-3240.00,1090.75 -3024.00,1000.75 -3024.00,962.50 -3240.00,1052.50" fill="#79573c" stroke="#674b36" stroke-width="7"/><polygon points="-3024.00,1000.75 -2160.00,1360.75 -2160.00,1322.50 -3024.00,962.50" fill="#79573c" stroke="#674b36" stroke-width="7"/><polygon points="-2160.00,1360.75 -2376.00,1450.75 -2376.00,1412.50 -2160.00,1322.50" fill="#79573c" stroke="#674b36" stroke-width="7"/><polygon points="-2376.00,1450.75 -3240.00,1090.75 -3240.00,1052.50 -2376.00,1412.50" fill="#79573c" stroke="#674b36" stroke-width="7"/><polygon points="-3240.00,1052.50 -3024.00,962.50 -2160.00,1322.50 -2376.00,1412.50" fill="url(#oak)" stroke="#775738" stroke-width="7"/><polygon points="-3456.00,1329.50 -3240.00,1239.50 -3240.00,1201.25 -3456.00,1291.25" fill="#79573c" stroke="#674b36" stroke-width="7"/><polygon points="-3240.00,1239.50 -2376.00,1599.50 -2376.00,1561.25 -3240.00,1201.25" fill="#79573c" stroke="#674b36" stroke-width="7"/><polygon points="-2376.00,1599.50 -2592.00,1689.50 -2592.00,1651.25 -2376.00,1561.25" fill="#79573c" stroke="#674b36" stroke-width="7"/><polygon points="-2592.00,1689.50 -3456.00,1329.50 -3456.00,1291.25 -2592.00,1651.25" fill="#79573c" stroke="#674b36" stroke-width="7"/><polygon points="-3456.00,1291.25 -3240.00,1201.25 -2376.00,1561.25 -2592.00,1651.25" fill="url(#oak)" stroke="#775738" stroke-width="7"/><polyline points="-3417.98,551.75 -3220.99,469.67" stroke="#343d40" stroke-width="30" fill="none"/><polyline points="-3417.98,1291.25 -3417.98,551.75" stroke="#535a5a" stroke-width="18"/><polyline points="-2395.01,813.83 -2592.00,895.91" stroke="#343d40" stroke-width="30" fill="none"/><polyline points="-2395.01,1553.33 -2395.01,813.83" stroke="#535a5a" stroke-width="18"/><polyline points="-3220.99,320.92 -3004.99,230.92" stroke="#343d40" stroke-width="30" fill="none"/><polyline points="-3220.99,1060.42 -3220.99,320.92" stroke="#535a5a" stroke-width="18"/><polyline points="-2179.01,575.08 -2395.01,665.08" stroke="#343d40" stroke-width="30" fill="none"/><polyline points="-2179.01,1314.58 -2179.01,575.08" stroke="#535a5a" stroke-width="18"/><polyline points="-3004.99,82.17 -2788.99,-7.83" stroke="#343d40" stroke-width="30" fill="none"/><polyline points="-3004.99,821.67 -3004.99,82.17" stroke="#535a5a" stroke-width="18"/><polyline points="-1963.01,336.33 -2179.01,426.33" stroke="#343d40" stroke-width="30" fill="none"/><polyline points="-1963.01,1075.83 -1963.01,336.33" stroke="#535a5a" stroke-width="18"/><polyline points="-2788.99,-156.58 -2572.99,-246.58" stroke="#343d40" stroke-width="30" fill="none"/><polyline points="-2788.99,582.92 -2788.99,-156.58" stroke="#535a5a" stroke-width="18"/><polyline points="-1747.01,97.58 -1963.01,187.58" stroke="#343d40" stroke-width="30" fill="none"/><polyline points="-1747.01,837.08 -1747.01,97.58" stroke="#535a5a" stroke-width="18"/><polyline points="-2572.99,-395.33 -2356.99,-485.33" stroke="#343d40" stroke-width="30" fill="none"/><polyline points="-2572.99,344.17 -2572.99,-395.33" stroke="#535a5a" stroke-width="18"/><polyline points="-1531.01,-141.17 -1747.01,-51.17" stroke="#343d40" stroke-width="30" fill="none"/><polyline points="-1531.01,598.33 -1531.01,-141.17" stroke="#535a5a" stroke-width="18"/><polyline points="-2356.99,-634.08 -2140.99,-724.08" stroke="#343d40" stroke-width="30" fill="none"/><polyline points="-2356.99,105.42 -2356.99,-634.08" stroke="#535a5a" stroke-width="18"/><polyline points="-1315.01,-379.92 -1531.01,-289.92" stroke="#343d40" stroke-width="30" fill="none"/><polyline points="-1315.01,359.58 -1315.01,-379.92" stroke="#535a5a" stroke-width="18"/><polyline points="-2140.99,-872.83 -1924.99,-962.83" stroke="#343d40" stroke-width="30" fill="none"/><polyline points="-2140.99,-133.33 -2140.99,-872.83" stroke="#535a5a" stroke-width="18"/><polyline points="-1099.01,-618.67 -1315.01,-528.67" stroke="#343d40" stroke-width="30" fill="none"/><polyline points="-1099.01,120.83 -1099.01,-618.67" stroke="#535a5a" stroke-width="18"/><polyline points="-1924.99,-1111.58 -1708.99,-1201.58" stroke="#343d40" stroke-width="30" fill="none"/><polyline points="-1924.99,-372.08 -1924.99,-1111.58" stroke="#535a5a" stroke-width="18"/><polyline points="-883.01,-857.42 -1099.01,-767.42" stroke="#343d40" stroke-width="30" fill="none"/><polyline points="-883.01,-117.92 -883.01,-857.42" stroke="#535a5a" stroke-width="18"/><polyline points="-1708.99,-1350.33 -1492.99,-1440.33" stroke="#343d40" stroke-width="30" fill="none"/><polyline points="-1708.99,-610.83 -1708.99,-1350.33" stroke="#535a5a" stroke-width="18"/><polyline points="-667.01,-1096.17 -883.01,-1006.17" stroke="#343d40" stroke-width="30" fill="none"/><polyline points="-667.01,-356.67 -667.01,-1096.17" stroke="#535a5a" stroke-width="18"/><polyline points="-1492.99,-1589.08 -1276.99,-1679.08" stroke="#343d40" stroke-width="30" fill="none"/><polyline points="-1492.99,-849.58 -1492.99,-1589.08" stroke="#535a5a" stroke-width="18"/><polyline points="-451.01,-1334.92 -667.01,-1244.92" stroke="#343d40" stroke-width="30" fill="none"/><polyline points="-451.01,-595.42 -451.01,-1334.92" stroke="#535a5a" stroke-width="18"/><polyline points="-1276.99,-1827.83 -1060.99,-1917.83" stroke="#343d40" stroke-width="30" fill="none"/><polyline points="-1276.99,-1088.33 -1276.99,-1827.83" stroke="#535a5a" stroke-width="18"/><polyline points="-235.01,-1573.67 -451.01,-1483.67" stroke="#343d40" stroke-width="30" fill="none"/><polyline points="-235.01,-834.17 -235.01,-1573.67" stroke="#535a5a" stroke-width="18"/><polyline points="-1060.99,-2066.58 -844.99,-2156.58" stroke="#343d40" stroke-width="30" fill="none"/><polyline points="-1060.99,-1327.08 -1060.99,-2066.58" stroke="#535a5a" stroke-width="18"/><polyline points="-19.01,-1812.42 -235.01,-1722.42" stroke="#343d40" stroke-width="30" fill="none"/><polyline points="-19.01,-1072.92 -19.01,-1812.42" stroke="#535a5a" stroke-width="18"/><polyline points="-844.99,-2305.33 -628.99,-2395.33" stroke="#343d40" stroke-width="30" fill="none"/><polyline points="-844.99,-1565.83 -844.99,-2305.33" stroke="#535a5a" stroke-width="18"/><polyline points="196.99,-2051.17 -19.01,-1961.17" stroke="#343d40" stroke-width="30" fill="none"/><polyline points="196.99,-1311.67 196.99,-2051.17" stroke="#535a5a" stroke-width="18"/><polyline points="-628.99,-2544.08 -412.99,-2634.08" stroke="#343d40" stroke-width="30" fill="none"/><polyline points="-628.99,-1804.58 -628.99,-2544.08" stroke="#535a5a" stroke-width="18"/><polyline points="412.99,-2289.92 196.99,-2199.92" stroke="#343d40" stroke-width="30" fill="none"/><polyline points="412.99,-1550.42 412.99,-2289.92" stroke="#535a5a" stroke-width="18"/><polyline points="-412.99,-2782.83 -196.99,-2872.83" stroke="#343d40" stroke-width="30" fill="none"/><polyline points="-412.99,-2043.33 -412.99,-2782.83" stroke="#535a5a" stroke-width="18"/><polyline points="628.99,-2528.67 412.99,-2438.67" stroke="#343d40" stroke-width="30" fill="none"/><polyline points="628.99,-1789.17 628.99,-2528.67" stroke="#535a5a" stroke-width="18"/><polyline points="-196.99,-3021.58 0.00,-3103.66" stroke="#343d40" stroke-width="30" fill="none"/><polyline points="-196.99,-2282.08 -196.99,-3021.58" stroke="#535a5a" stroke-width="18"/><polyline points="825.98,-2759.50 628.99,-2677.42" stroke="#343d40" stroke-width="30" fill="none"/><polyline points="825.98,-2020.00 825.98,-2759.50" stroke="#535a5a" stroke-width="18"/></svg>