<svg xmlns="http://www.w3.org/2000/svg" viewBox="-3030.0 -3295.0 3900.0 4945.0"><defs><pattern id="oak" width="130" height="55" patternUnits="userSpaceOnUse"><rect width="130" height="55" fill="#bd9364"/><path d="M0 12 Q60 2 130 17 M0 36 Q60 44 130 32" stroke="#99734e" stroke-width="3" fill="none" opacity=".45"/></pattern></defs><polygon points="-180.00,-2266.75 0.00,-2341.75 0.00,-2380.00 -180.00,-2305.00" fill="#79573c" stroke="#674b36" stroke-width="7"/><polygon points="0.00,-2341.75 720.00,-2041.75 720.00,-2080.00 0.00,-2380.00" fill="#79573c" stroke="#674b36" stroke-width="7"/><polygon points="720.00,-2041.75 540.00,-1966.75 540.00,-2005.00 720.00,-2080.00" fill="#79573c" stroke="#674b36" stroke-width="7"/><polygon points="540.00,-1966.75 -180.00,-2266.75 -180.00,-2305.00 540.00,-2005.00" fill="#79573c" stroke="#674b36" stroke-width="7"/><polygon points="-180.00,-2305.00 0.00,-2380.00 720.00,-2080.00 540.00,-2005.00" fill="url(#oak)" stroke="#775738" stroke-width="7"/><polygon points="-360.00,-2043.00 -180.00,-2118.00 -180.00,-2156.25 -360.00,-2081.25" fill="#79573c" stroke="#674b36" stroke-width="7"/><polygon points="-180.00,-2118.00 540.00,-1818.00 540.00,-1856.25 -180.00,-2156.25" fill="#79573c" stroke="#674b36" stroke-width="7"/><polygon points="540.00,-1818.00 360.00,-1743.00 360.00,-1781.25 540.00,-1856.25" fill="#79573c" stroke="#674b36" stroke-width="7"/><polygon points="360.00,-1743.00 -360.00,-2043.00 -360.00,-2081.25 360.00,-1781.25" fill="#79573c" stroke="#674b36" stroke-width="7"/><polygon points="-360.00,-2081.25 -180.00,-2156.25 540.00,-1856.25 360.00,-1781.25" fill="url(#oak)" stroke="#775738" stroke-width="7"/><polygon points="-540.00,-1819.25 -360.00,-1894.25 -360.00,-1932.50 -540.00,-1857.50" fill="#79573c" stroke="#674b36" stroke-width="7"/><polygon points="-360.00,-1894.25 360.00,-1594.25 360.00,-1632.50 -360.00,-1932.50" fill="#79573c" stroke="#674b36" stroke-width="7"/><polygon points="360.00,-1594.25 180.00,-1519.25 180.00,-1557.50 360.00,-1632.50" fill="#79573c" stroke="#674b36" stroke-width="7"/><polygon points="180.00,-1519.25 -540.00,-1819.25 -540.00,-1857.50 180.00,-1557.50" fill="#79573c" stroke="#674b36" stroke-width="7"/><polygon points="-540.00,-1857.50 -360.00,-1932.50 360.00,-1632.50 180.00,-1557.50" fill="url(#oak)" stroke="#775738" stroke-width="7"/><polygon points="-720.00,-1595.50 -540.00,-1670.50 -540.00,-1708.75 -720.00,-1633.75" fill="#79573c" stroke="#674b36" stroke-width="7"/><polygon points="-540.00,-1670.50 180.00,-1370.50 180.00,-1408.75 -540.00,-1708.75" fill="#79573c" stroke="#674b36" stroke-width="7"/><polygon points="180.00,-1370.50 0.00,-1295.50 0.00,-1333.75 180.00,-1408.75" fill="#79573c" stroke="#674b36" stroke-width="7"/><polygon points="0.00,-1295.50 -720.00,-1595.50 -720.00,-1633.75 0.00,-1333.75" fill="#79573c" stroke="#674b36" stroke-width="7"/><polygon points="-720.00,-1633.75 -540.00,-1708.75 180.00,-1408.75 0.00,-1333.75" fill="url(#oak)" stroke="#775738" stroke-width="7"/><polygon points="-900.00,-1371.75 -720.00,-1446.75 -720.00,-1485.00 -900.00,-1410.00" fill="#79573c" stroke="#674b36" stroke-width="7"/><polygon points="-720.00,-1446.75 0.00,-1146.75 0.00,-1185.00 -720.00,-1485.00" fill="#79573c" stroke="#674b36" stroke-width="7"/><polygon points="0.00,-1146.75 -180.00,-1071.75 -180.00,-1110.00 0.00,-1185.00" fill="#79573c" stroke="#674b36" stroke-width="7"/><polygon points="-180.00,-1071.75 -900.00,-1371.75 -900.00,-1410.00 -180.00,-1110.00" fill="#79573c" stroke="#674b36" stroke-width="7"/><polygon points="-900.00,-1410.00 -720.00,-1485.00 0.00,-1185.00 -180.00,-1110.00" fill="url(#oak)" stroke="#775738" stroke-width="7"/><polygon points="-1080.00,-1148.00 -900.00,-1223.00 -900.00,-1261.25 -1080.00,-1186.25" fill="#79573c" stroke="#674b36" stroke-width="7"/><polygon points="-900.00,-1223.00 -180.00,-923.00 -180.00,-961.25 -900.00,-1261.25" fill="#79573c" stroke="#674b36" stroke-width="7"/><polygon points="-180.00,-923.00 -360.00,-848.00 -360.00,-886.25 -180.00,-961.25" fill="#79573c" stroke="#674b36" stroke-width="7"/><polygon points="-360.00,-848.00 -1080.00,-1148.00 -1080.00,-1186.25 -360.00,-886.25" fill="#79573c" stroke="#674b36" stroke-width="7"/><polygon points="-1080.00,-1186.25 -900.00,-1261.25 -180.00,-961.25 -360.00,-886.25" fill="url(#oak)" stroke="#775738" stroke-width="7"/><polygon points="-1260.00,-924.25 -1080.00,-999.25 -1080.00,-1037.50 -1260.00,-962.50" fill="#79573c" stroke="#674b36" stroke-width="7"/><polygon points="-1080.00,-999.25 -360.00,-699.25 -360.00,-737.50 -1080.00,-1037.50" fill="#79573c" stroke="#674b36" stroke-width="7"/><polygon points="-360.00,-699.25 -540.00,-624.25 -540.00,-662.50 -360.00,-737.50" fill="#79573c" stroke="#674b36" stroke-width="7"/><polygon points="-540.00,-624.25 -1260.00,-924.25 -1260.00,-962.50 -540.00,-662.50" fill="#79573c" stroke="#674b36" stroke-width="7"/><polygon points="-1260.00,-962.50 -1080.00,-1037.50 -360.00,-737.50 -540.00,-662.50" fill="url(#oak)" stroke="#775738" stroke-width="7"/><polygon points="-1440.00,-700.50 -1260.00,-775.50 -1260.00,-813.75 -1440.00,-738.75" fill="#79573c" stroke="#674b36" stroke-width="7"/><polygon points="-1260.00,-775.50 -540.00,-475.50 -540.00,-513.75 -1260.00,-813.75" fill="#79573c" stroke="#674b36" stroke-width="7"/><polygon points="-540.00,-475.50 -720.00,-400.50 -720.00,-438.75 -540.00,-513.75" fill="#79573c" stroke="#674b36" stroke-width="7"/><polygon points="-720.00,-400.50 -1440.00,-700.50 -1440.00,-738.75 -720.00,-438.75" fill="#79573c" stroke="#674b36" stroke-width="7"/><polygon points="-1440.00,-738.75 -1260.00,-813.75 -540.00,-513.75 -720.00,-438.75" fill="url(#oak)" stroke="#775738" stroke-width="7"/><polygon points="-1620.00,-476.75 -1440.00,-551.75 -1440.00,-590.00 -1620.00,-515.00" fill="#79573c" stroke="#674b36" stroke-width="7"/><polygon points="-1440.00,-551.75 -720.00,-251.75 -720.00,-290.00 -1440.00,-590.00" fill="#79573c" stroke="#674b36" stroke-width="7"/><polygon points="-720.00,-251.75 -900.00,-176.75 -900.00,-215.00 -720.00,-290.00" fill="#79573c" stroke="#674b36" stroke-width="7"/><polygon points="-900.00,-176.75 -1620.00,-476.75 -1620.00,-515.00 -900.00,-215.00" fill="#79573c" stroke="#674b36" stroke-width="7"/><polygon points="-1620.00,-515.00 -1440.00,-590.00 -720.00,-290.00 -900.00,-215.00" fill="url(#oak)" stroke="#775738" stroke-width="7"/><polygon points="-1800.00,-253.00 -1620.00,-328.00 -1620.00,-366.25 -1800.00,-291.25" fill="#79573c" stroke="#674b36" stroke-width="7"/><polygon points="-1620.00,-328.00 -900.00,-28.00 -900.00,-66.25 -1620.00,-366.25" fill="#79573c" stroke="#674b36" stroke-width="7"/><polygon points="-900.00,-28.00 -1080.00,47.00 -1080.00,8.75 -900.00,-66.25" fill="#79573c" stroke="#674b36" stroke-width="7"/><polygon points="-1080.00,47.00 -1800.00,-253.00 -1800.00,-291.25 -1080.00,8.75" fill="#79573c" stroke="#674b36" stroke-width="7"/><polygon points="-1800.00,-291.25 -1620.00,-366.25 -900.00,-66.25 -1080.00,8.75" fill="url(#oak)" stroke="#775738" stroke-width="7"/><polygon points="-1980.00,-29.25 -1800.00,-104.25 -1800.00,-142.50 -1980.00,-67.50" fill="#79573c" stroke="#674b36" stroke-width="7"/><polygon points="-1800.00,-104.25 -1080.00,195.75 -1080.00,157.50 -1800.00,-142.50" fill="#79573c" stroke="#674b36" stroke-width="7"/><polygon points="-1080.00,195.75 -1260.00,270.75 -1260.00,232.50 -1080.00,157.50" fill="#79573c" stroke="#674b36" stroke-width="7"/><polygon points="-1260.00,270.75 -1980.00,-29.25 -1980.00,-67.50 -1260.00,232.50" fill="#79573c" stroke="#674b36" stroke-width="7"/><polygon points="-1980.00,-67.50 -1800.00,-142.50 -1080.00,157.50 -1260.00,232.50" fill="url(#oak)" stroke="#775738" stroke-width="7"/><polygon points="-2160.00,194.50 -1980.00,119.50 -1980.00,81.25 -2160.00,156.25" fill="#79573c" stroke="#674b36" stroke-width="7"/><polygon points="-1980.00,119.50 -1260.00,419.50 -1260.00,381.25 -1980.00,81.25" fill="#79573c" stroke="#674b36" stroke-width="7"/><polygon points="-1260.00,419.50 -1440.00,494.50 -1440.00,456.25 -1260.00,381.25" fill="#79573c" stroke="#674b36" stroke-width="7"/><polygon points="-1440.00,494.50 -2160.00,194.50 -2160.00,156.25 -1440.00,456.25" fill="#79573c" stroke="#674b36" stroke-width="7"/><polygon points="-2160.00,156.25 -1980.00,81.25 -1260.00,381.25 -1440.00,456.25" fill="url(#oak)" stroke="#775738" stroke-width="7"/><polygon points="-2340.00,418.25 -2160.00,343.25 -2160.00,305.00 -2340.00,380.00" fill="#79573c" stroke="#674b36" stroke-width="7"/><polygon points="-2160.00,343.25 -1440.00,643.25 -1440.00,605.00 -2160.00,305.00" fill="#79573c" stroke="#674b36" stroke-width="7"/><polygon points="-1440.00,643.25 -1620.00,718.25 -1620.00,680.00 -1440.00,605.00" fill="#79573c" stroke="#674b36" stroke-width="7"/><polygon points="-1620.00,718.25 -2340.00,418.25 -2340.00,380.00 -1620.00,680.00" fill="#79573c" stroke="#674b36" stroke-width="7"/><polygon points="-2340.00,380.00 -2160.00,305.00 -1440.00,605.00 -1620.00,680.00" fill="url(#oak)" stroke="#775738" stroke-width="7"/><polygon points="-2520.00,642.00 -2340.00,567.00 -2340.00,528.75 -2520.00,603.75" fill="#79573c" stroke="#674b36" stroke-width="7"/><polygon points="-2340.00,567.00 -1620.00,867.00 -1620.00,828.75 -2340.00,528.75" fill="#79573c" stroke="#674b36" stroke-width="7"/><polygon points="-1620.00,867.00 -1800.00,942.00 -1800.00,903.75 -1620.00,828.75" fill="#79573c" stroke="#674b36" stroke-width="7"/><polygon points="-1800.00,942.00 -2520.00,642.00 -2520.00,603.75 -1800.00,903.75" fill="#79573c" stroke="#674b36" stroke-width="7"/><polygon points="-2520.00,603.75 -2340.00,528.75 -1620.00,828.75 -1800.00,903.75" fill="url(#oak)" stroke="#775738" stroke-width="7"/><polygon points="-2700.00,865.75 -2520.00,790.75 -2520.00,752.50 -2700.00,827.50" fill="#79573c" stroke="#674b36" stroke-width="7"/><polygon points="-2520.00,790.75 -1800.00,1090.75 -1800.00,1052.50 -2520.00,752.50" fill="#79573c" stroke="#674b36" stroke-width="7"/><polygon points="-1800.00,1090.75 -1980.00,1165.75 -1980.00,1127.50 -1800.00,1052.50" fill="#79573c" stroke="#674b36" stroke-width="7"/><polygon points="-1980.00,1165.75 -2700.00,865.75 -2700.00,827.50 -1980.00,1127.50" fill="#79573c" stroke="#674b36" stroke-width="7"/><polygon points="-2700.00,827.50 -2520.00,752.50 -1800.00,1052.50 -1980.00,1127.50" fill="url(#oak)" stroke="#775738" stroke-width="7"/><polygon points="-2880.00,1089.50 -2700.00,1014.50 -2700.00,976.25 -2880.00,1051.25" fill="#79573c" stroke="#674b36" stroke-width="7"/><polygon points="-2700.00,1014.50 -1980.00,1314.50 -1980.00,1276.25 -2700.00,976.25" fill="#79573c" stroke="#674b36" stroke-width="7"/><polygon points="-1980.00,1314.50 -2160.00,1389.50 -2160.00,1351.25 -1980.00,1276.25" fill="#79573c" stroke="#674b36" stroke-width="7"/><polygon points="-2160.00,1389.50 -2880.00,1089.50 -2880.00,1051.25 -2160.00,1351.25" fill="#79573c" stroke="#674b36" stroke-width="7"/><polygon points="-2880.00,1051.25 -2700.00,976.25 -1980.00,1276.25 -2160.00,1351.25" fill="url(#oak)" stroke="#775738" stroke-width="7"/><polyline points="-2848.32,311.75 -2684.16,243.35" stroke="#343d40" stroke-width="30" fill="none"/><polygon points="-2848.32,991.75 -2684.16,923.35 -2684.16,243.35 -2848.32,311.75" fill="#b7dbe0" fill-opacity=".3" stroke="#8daeb4" stroke-width="8"/><polyline points="-2848.32,1051.25 -2848.32,311.75" stroke="#535a5a" stroke-width="18"/><polyline points="-1995.84,530.15 -2160.00,598.55" stroke="#343d40" stroke-width="30" fill="none"/><polygon points="-1995.84,1210.15 -2160.00,1278.55 -2160.00,598.55 -1995.84,530.15" fill="#b7dbe0" fill-opacity=".3" stroke="#8daeb4" stroke-width="8"/><polyline points="-1995.84,1269.65 -1995.84,530.15" stroke="#535a5a" stroke-width="18"/><polyline points="-2684.16,94.60 -2504.16,19.60" stroke="#343d40" stroke-width="30" fill="none"/><polygon points="-2684.16,774.60 -2504.16,699.60 -2504.16,19.60 -2684.16,94.60" fill="#b7dbe0" fill-opacity=".3" stroke="#8daeb4" stroke-width="8"/><polyline points="-2684.16,834.10 -2684.16,94.60" stroke="#535a5a" stroke-width="18"/><polyline points="-1815.84,306.40 -1995.84,381.40" stroke="#343d40" stroke-width="30" fill="none"/><polygon points="-1815.84,986.40 -1995.84,1061.40 -1995.84,381.40 -1815.84,306.40" fill="#b7dbe0" fill-opacity=".3" stroke="#8daeb4" stroke-width="8"/><polyline points="-1815.84,1045.90 -1815.84,306.40" stroke="#535a5a" stroke-width="18"/><polyline points="-2504.16,-129.15 -2324.16,-204.15" stroke="#343d40" stroke-width="30" fill="none"/><polygon points="-2504.16,550.85 -2324.16,475.85 -2324.16,-204.15 -2504.16,-129.15" fill="#b7dbe0" fill-opacity=".3" stroke="#8daeb4" stroke-width="8"/><polyline points="-2504.16,610.35 -2504.16,-129.15" stroke="#535a5a" stroke-width="18"/><polyline points="-1635.84,82.65 -1815.84,157.65" stroke="#343d40" stroke-width="30" fill="none"/><polygon points="-1635.84,762.65 -1815.84,837.65 -1815.84,157.65 -1635.84,82.65" fill="#b7dbe0" fill-opacity=".3" stroke="#8daeb4" stroke-width="8"/><polyline points="-1635.84,822.15 -1635.84,82.65" stroke="#535a5a" stroke-width="18"/><polyline points="-2324.16,-352.90 -2144.16,-427.90" stroke="#343d40" stroke-width="30" fill="none"/><polygon points="-2324.16,327.10 -2144.16,252.10 -2144.16,-427.90 -2324.16,-352.90" fill="#b7dbe0" fill-opacity=".3" stroke="#8daeb4" stroke-width="8"/><polyline points="-2324.16,386.60 -2324.16,-352.90" stroke="#535a5a" stroke-width="18"/><polyline points="-1455.84,-141.10 -1635.84,-66.10" stroke="#343d40" stroke-width="30" fill="none"/><polygon points="-1455.84,538.90 -1635.84,613.90 -1635.84,-66.10 -1455.84,-141.10" fill="#b7dbe0" fill-opacity=".3" stroke="#8daeb4" stroke-width="8"/><polyline points="-1455.84,598.40 -1455.84,-141.10" stroke="#535a5a" stroke-width="18"/><polyline points="-2144.16,-576.65 -1964.16,-651.65" stroke="#343d40" stroke-width="30" fill="none"/><polygon points="-2144.16,103.35 -1964.16,28.35 -1964.16,-651.65 -2144.16,-576.65" fill="#b7dbe0" fill-opacity=".3" stroke="#8daeb4" stroke-width="8"/><polyline points="-2144.16,162.85 -2144.16,-576.65" stroke="#535a5a" stroke-width="18"/><polyline points="-1275.84,-364.85 -1455.84,-289.85" stroke="#343d40" stroke-width="30" fill="none"/><polygon points="-1275.84,315.15 -1455.84,390.15 -1455.84,-289.85 -1275.84,-364.85" fill="#b7dbe0" fill-opacity=".3" stroke="#8daeb4" stroke-width="8"/><polyline points="-1275.84,374.65 -1275.84,-364.85" stroke="#535a5a" stroke-width="18"/><polyline points="-1964.16,-800.40 -1784.16,-875.40" stroke="#343d40" stroke-width="30" fill="none"/><polygon points="-1964.16,-120.40 -1784.16,-195.40 -1784.16,-875.40 -1964.16,-800.40" fill="#b7dbe0" fill-opacity=".3" stroke="#8daeb4" stroke-width="8"/><polyline points="-1964.16,-60.90 -1964.16,-800.40" stroke="#535a5a" stroke-width="18"/><polyline points="-1095.84,-588.60 -1275.84,-513.60" stroke="#343d40" stroke-width="30" fill="none"/><polygon points="-1095.84,91.40 -1275.84,166.40 -1275.84,-513.60 -1095.84,-588.60" fill="#b7dbe0" fill-opacity=".3" stroke="#8daeb4" stroke-width="8"/><polyline points="-1095.84,150.90 -1095.84,-588.60" stroke="#535a5a" stroke-width="18"/><polyline points="-1784.16,-1024.15 -1604.16,-1099.15" stroke="#343d40" stroke-width="30" fill="none"/><polygon points="-1784.16,-344.15 -1604.16,-419.15 -1604.16,-1099.15 -1784.16,-1024.15" fill="#b7dbe0" fill-opacity=".3" stroke="#8daeb4" stroke-width="8"/><polyline points="-1784.16,-284.65 -1784.16,-1024.15" stroke="#535a5a" stroke-width="18"/><polyline points="-915.84,-812.35 -1095.84,-737.35" stroke="#343d40" stroke-width="30" fill="none"/><polygon points="-915.84,-132.35 -1095.84,-57.35 -1095.84,-737.35 -915.84,-812.35" fill="#b7dbe0" fill-opacity=".3" stroke="#8daeb4" stroke-width="8"/><polyline points="-915.84,-72.85 -915.84,-812.35" stroke="#535a5a" stroke-width="18"/><polyline points="-1604.16,-1247.90 -1424.16,-1322.90" stroke="#343d40" stroke-width="30" fill="none"/><polygon points="-1604.16,-567.90 -1424.16,-642.90 -1424.16,-1322.90 -1604.16,-1247.90" fill="#b7dbe0" fill-opacity=".3" stroke="#8daeb4" stroke-width="8"/><polyline points="-1604.16,-508.40 -1604.16,-1247.90" stroke="#535a5a" stroke-width="18"/><polyline points="-735.84,-1036.10 -915.84,-961.10" stroke="#343d40" stroke-width="30" fill="none"/><polygon points="-735.84,-356.10 -915.84,-281.10 -915.84,-961.10 -735.84,-1036.10" fill="#b7dbe0" fill-opacity=".3" stroke="#8daeb4" stroke-width="8"/><polyline points="-735.84,-296.60 -735.84,-1036.10" stroke="#535a5a" stroke-width="18"/><polyline points="-1424.16,-1471.65 -1244.16,-1546.65" stroke="#343d40" stroke-width="30" fill="none"/><polygon points="-1424.16,-791.65 -1244.16,-866.65 -1244.16,-1546.65 -1424.16,-1471.65" fill="#b7dbe0" fill-opacity=".3" stroke="#8daeb4" stroke-width="8"/><polyline points="-1424.16,-732.15 -1424.16,-1471.65" stroke="#535a5a" stroke-width="18"/><polyline points="-555.84,-1259.85 -735.84,-1184.85" stroke="#343d40" stroke-width="30" fill="none"/><polygon points="-555.84,-579.85 -735.84,-504.85 -735.84,-1184.85 -555.84,-1259.85" fill="#b7dbe0" fill-opacity=".3" stroke="#8daeb4" stroke-width="8"/><polyline points="-555.84,-520.35 -555.84,-1259.85" stroke="#535a5a" stroke-width="18"/><polyline points="-1244.16,-1695.40 -1064.16,-1770.40" stroke="#343d40" stroke-width="30" fill="none"/><polygon points="-1244.16,-1015.40 -1064.16,-1090.40 -1064.16,-1770.40 -1244.16,-1695.40" fill="#b7dbe0" fill-opacity=".3" stroke="#8daeb4" stroke-width="8"/><polyline points="-1244.16,-955.90 -1244.16,-1695.40" stroke="#535a5a" stroke-width="18"/><polyline points="-375.84,-1483.60 -555.84,-1408.60" stroke="#343d40" stroke-width="30" fill="none"/><polygon points="-375.84,-803.60 -555.84,-728.60 -555.84,-1408.60 -375.84,-1483.60" fill="#b7dbe0" fill-opacity=".3" stroke="#8daeb4" stroke-width="8"/><polyline points="-375.84,-744.10 -375.84,-1483.60" stroke="#535a5a" stroke-width="18"/><polyline points="-1064.16,-1919.15 -884.16,-1994.15" stroke="#343d40" stroke-width="30" fill="none"/><polygon points="-1064.16,-1239.15 -884.16,-1314.15 -884.16,-1994.15 -1064.16,-1919.15" fill="#b7dbe0" fill-opacity=".3" stroke="#8daeb4" stroke-width="8"/><polyline points="-1064.16,-1179.65 -1064.16,-1919.15" stroke="#535a5a" stroke-width="18"/><polyline points="-195.84,-1707.35 -375.84,-1632.35" stroke="#343d40" stroke-width="30" fill="none"/><polygon points="-195.84,-1027.35 -375.84,-952.35 -375.84,-1632.35 -195.84,-1707.35" fill="#b7dbe0" fill-opacity=".3" stroke="#8daeb4" stroke-width="8"/><polyline points="-195.84,-967.85 -195.84,-1707.35" stroke="#535a5a" stroke-width="18"/><polyline points="-884.16,-2142.90 -704.16,-2217.90" stroke="#343d40" stroke-width="30" fill="none"/><polygon points="-884.16,-1462.90 -704.16,-1537.90 -704.16,-2217.90 -884.16,-2142.90" fill="#b7dbe0" fill-opacity=".3" stroke="#8daeb4" stroke-width="8"/><polyline points="-884.16,-1403.40 -884.16,-2142.90" stroke="#535a5a" stroke-width="18"/><polyline points="-15.84,-1931.10 -195.84,-1856.10" stroke="#343d40" stroke-width="30" fill="none"/><polygon points="-15.84,-1251.10 -195.84,-1176.10 -195.84,-1856.10 -15.84,-1931.10" fill="#b7dbe0" fill-opacity=".3" stroke="#8daeb4" stroke-width="8"/><polyline points="-15.84,-1191.60 -15.84,-1931.10" stroke="#535a5a" stroke-width="18"/><polyline points="-704.16,-2366.65 -524.16,-2441.65" stroke="#343d40" stroke-width="30" fill="none"/><polygon points="-704.16,-1686.65 -524.16,-1761.65 -524.16,-2441.65 -704.16,-2366.65" fill="#b7dbe0" fill-opacity=".3" stroke="#8daeb4" stroke-width="8"/><polyline points="-704.16,-1627.15 -704.16,-2366.65" stroke="#535a5a" stroke-width="18"/><polyline points="164.16,-2154.85 -15.84,-2079.85" stroke="#343d40" stroke-width="30" fill="none"/><polygon points="164.16,-1474.85 -15.84,-1399.85 -15.84,-2079.85 164.16,-2154.85" fill="#b7dbe0" fill-opacity=".3" stroke="#8daeb4" stroke-width="8"/><polyline points="164.16,-1415.35 164.16,-2154.85" stroke="#535a5a" stroke-width="18"/><polyline points="-524.16,-2590.40 -344.16,-2665.40" stroke="#343d40" stroke-width="30" fill="none"/><polygon points="-524.16,-1910.40 -344.16,-1985.40 -344.16,-2665.40 -524.16,-2590.40" fill="#b7dbe0" fill-opacity=".3" stroke="#8daeb4" stroke-width="8"/><polyline points="-524.16,-1850.90 -524.16,-2590.40" stroke="#535a5a" stroke-width="18"/><polyline points="344.16,-2378.60 164.16,-2303.60" stroke="#343d40" stroke-width="30" fill="none"/><polygon points="344.16,-1698.60 164.16,-1623.60 164.16,-2303.60 344.16,-2378.60" fill="#b7dbe0" fill-opacity=".3" stroke="#8daeb4" stroke-width="8"/><polyline points="344.16,-1639.10 344.16,-2378.60" stroke="#535a5a" stroke-width="18"/><polyline points="-344.16,-2814.15 -164.16,-2889.15" stroke="#343d40" stroke-width="30" fill="none"/><polygon points="-344.16,-2134.15 -164.16,-2209.15 -164.16,-2889.15 -344.16,-2814.15" fill="#b7dbe0" fill-opacity=".3" stroke="#8daeb4" stroke-width="8"/><polyline points="-344.16,-2074.65 -344.16,-2814.15" stroke="#535a5a" stroke-width="18"/><polyline points="524.16,-2602.35 344.16,-2527.35" stroke="#343d40" stroke-width="30" fill="none"/><polygon points="524.16,-1922.35 344.16,-1847.35 344.16,-2527.35 524.16,-2602.35" fill="#b7dbe0" fill-opacity=".3" stroke="#8daeb4" stroke-width="8"/><polyline points="524.16,-1862.85 524.16,-2602.35" stroke="#535a5a" stroke-width="18"/><polyline points="-164.16,-3037.90 0.00,-3106.30" stroke="#343d40" stroke-width="30" fill="none"/><polygon points="-164.16,-2357.90 0.00,-2426.30 0.00,-3106.30 -164.16,-3037.90" fill="#b7dbe0" fill-opacity=".3" stroke="#8daeb4" stroke-width="8"/><polyline points="-164.16,-2298.40 -164.16,-3037.90" stroke="#535a5a" stroke-width="18"/><polyline points="688.32,-2819.50 524.16,-2751.10" stroke="#343d40" stroke-width="30" fill="none"/><polygon points="688.32,-2139.50 524.16,-2071.10 524.16,-2751.10 688.32,-2819.50" fill="#b7dbe0" fill-opacity=".3" stroke="#8daeb4" stroke-width="8"/><polyline points="688.32,-2080.00 688.32,-2819.50" stroke="#535a5a" stroke-width="18"/></svg>